<?xml version="1.0" encoding="utf-8"?><!DOCTYPE svg PUBLIC "-//W3C//DTD SVG 1.1//EN" "http://www.w3.org/Graphics/SVG/1.1/DTD/svg11.dtd"><svg xmlns="http://www.w3.org/2000/svg" xmlns:xlink="http://www.w3.org/1999/xlink"><symbol viewBox="0 0 30 30" id="arrow" xmlns="http://www.w3.org/2000/svg"><path d="M22.68 15.598L8.526 29.75a.846.846 0 01-1.2 0 .846.846 0 010-1.2L20.874 15 7.326 1.453a.846.846 0 010-1.2A.854.854 0 017.924 0c.213 0 .433.082.597.251l14.152 14.152a.844.844 0 01.006 1.195z"/></symbol><symbol fill="none" viewBox="0 0 30 30" id="download" xmlns="http://www.w3.org/2000/svg"><path d="M29.39 27.006a.61.61 0 00-.61.61v1.163H1.22v-4.07H29.39a.61.61 0 000-1.22H.61a.61.61 0 00-.61.61v5.29c0 .338.273.61.61.61h28.78a.61.61 0 00.61-.61v-1.772a.61.61 0 00-.61-.61zM14.568 20.702a.61.61 0 00.864 0l7.77-7.77a.61.61 0 10-.863-.863L15 19.407 7.661 12.07a.61.61 0 00-.863.863l7.77 7.77z" fill="#fff"/><path d="M15 17.442a.61.61 0 00.61-.61V.61a.61.61 0 00-1.22 0v16.221c0 .338.273.61.61.61z" fill="#fff"/></symbol><symbol viewBox="0 0 96.124 96.123" id="facebook" xmlns="http://www.w3.org/2000/svg"><path d="M72.089.02L59.624 0C45.62 0 36.57 9.285 36.57 23.656v10.907H24.037a1.96 1.96 0 00-1.96 1.961v15.803a1.96 1.96 0 001.96 1.96H36.57v39.876a1.96 1.96 0 001.96 1.96h16.352a1.96 1.96 0 001.96-1.96V54.287h14.654a1.96 1.96 0 001.96-1.96l.006-15.803a1.963 1.963 0 00-1.961-1.961H56.842v-9.246c0-4.444 1.059-6.7 6.848-6.7l8.397-.003a1.96 1.96 0 001.959-1.96V1.98A1.96 1.96 0 0072.089.02z"/></symbol><symbol viewBox="0 0 169.063 169.063" id="instagram" xmlns="http://www.w3.org/2000/svg"><path d="M122.406 0H46.654C20.929 0 0 20.93 0 46.655v75.752c0 25.726 20.929 46.655 46.654 46.655h75.752c25.727 0 46.656-20.93 46.656-46.655V46.655C169.063 20.93 148.133 0 122.406 0zm31.657 122.407c0 17.455-14.201 31.655-31.656 31.655H46.654C29.2 154.063 15 139.862 15 122.407V46.655C15 29.201 29.2 15 46.654 15h75.752c17.455 0 31.656 14.201 31.656 31.655v75.752z"/><path d="M84.531 40.97c-24.021 0-43.563 19.542-43.563 43.563 0 24.02 19.542 43.561 43.563 43.561s43.563-19.541 43.563-43.561c0-24.021-19.542-43.563-43.563-43.563zm0 72.123c-15.749 0-28.563-12.812-28.563-28.561 0-15.75 12.813-28.563 28.563-28.563s28.563 12.813 28.563 28.563c0 15.749-12.814 28.561-28.563 28.561zM129.921 28.251c-2.89 0-5.729 1.17-7.77 3.22a11.053 11.053 0 00-3.23 7.78c0 2.891 1.18 5.73 3.23 7.78 2.04 2.04 4.88 3.22 7.77 3.22 2.9 0 5.73-1.18 7.78-3.22 2.05-2.05 3.22-4.89 3.22-7.78 0-2.9-1.17-5.74-3.22-7.78-2.04-2.05-4.88-3.22-7.78-3.22z"/></symbol><symbol viewBox="0 0 310 310" id="linkedin" xmlns="http://www.w3.org/2000/svg"><path d="M72.16 99.73H9.927a5 5 0 00-5 5v199.928a5 5 0 005 5H72.16a5 5 0 005-5V104.73a5 5 0 00-5-5zM41.066.341C18.422.341 0 18.743 0 41.362 0 63.991 18.422 82.4 41.066 82.4c22.626 0 41.033-18.41 41.033-41.038C82.1 18.743 63.692.341 41.066.341zM230.454 94.761c-24.995 0-43.472 10.745-54.679 22.954V104.73a5 5 0 00-5-5h-59.599a5 5 0 00-5 5v199.928a5 5 0 005 5h62.097a5 5 0 005-5V205.74c0-33.333 9.054-46.319 32.29-46.319 25.306 0 27.317 20.818 27.317 48.034v97.204a5 5 0 005 5H305a5 5 0 005-5V194.995c0-49.565-9.451-100.234-79.546-100.234z"/></symbol><symbol fill="none" viewBox="0 0 220 61" id="logo" xmlns="http://www.w3.org/2000/svg"><path d="M21.32 46.328a23.632 23.632 0 01-15.15-7.525 23.128 23.128 0 01-6.105-15.64A23.128 23.128 0 016.17 7.526 23.632 23.632 0 0121.32 0v7.454a16.08 16.08 0 00-9.726 5.348 15.749 15.749 0 00-3.861 10.32c0 3.785 1.37 7.445 3.862 10.32a16.081 16.081 0 009.725 5.347v7.539z" fill="#878787"/><path d="M25.72 0c4.446.414 8.68 2.07 12.21 4.776a23.288 23.288 0 017.722 10.5 23.026 23.026 0 01.832 12.958 23.2 23.2 0 01-6.318 11.381 23.862 23.862 0 01-5.373 3.964L25.72 61V38.79a16.085 16.085 0 009.88-5.295 15.75 15.75 0 003.939-10.407A15.75 15.75 0 0035.6 12.68a16.085 16.085 0 00-9.88-5.294V0z" fill="#E30613"/><path d="M55.277 13.357c2.072-.31 4.165-.45 6.26-.422a9.872 9.872 0 016.242 1.687 5.826 5.826 0 011.608 2.058c.373.797.557 1.668.54 2.546a6.244 6.244 0 01-.418 2.601 6.3 6.3 0 01-1.457 2.205 9.76 9.76 0 01-6.652 2.125c-.526.01-1.05-.03-1.569-.118v7.252h-4.554V13.357zm4.588 9.174a7.38 7.38 0 001.552.118c2.456 0 3.974-1.23 3.974-3.271s-1.313-2.969-3.65-2.969a8.623 8.623 0 00-1.876.152v5.97zM72.486 23.459c0-2.159 0-3.575-.136-4.823h3.957l.17 2.698h.12a4.3 4.3 0 011.505-2.172 4.38 4.38 0 012.503-.897c.327-.005.653.03.972.1v4.284c-.41-.08-.827-.12-1.245-.118a2.975 2.975 0 00-2.023.561 2.914 2.914 0 00-1.132 1.75 6.215 6.215 0 000 1.012v7.437h-4.69V23.46zM98.41 25.803a7.296 7.296 0 01-.458 3.05 7.361 7.361 0 01-1.68 2.599 7.462 7.462 0 01-2.61 1.69 7.53 7.53 0 01-3.08.486 7.341 7.341 0 01-2.997-.455 7.275 7.275 0 01-2.549-1.626 7.177 7.177 0 01-1.655-2.512 7.112 7.112 0 01-.474-2.962 7.261 7.261 0 01.461-3.082 7.328 7.328 0 011.713-2.614 7.43 7.43 0 012.655-1.677 7.496 7.496 0 013.12-.435 7.304 7.304 0 012.961.48 7.24 7.24 0 012.51 1.63 7.142 7.142 0 011.624 2.495c.36.935.516 1.934.46 2.933zm-10.744.152c0 2.513 1.057 4.402 3.036 4.402 1.978 0 2.95-1.771 2.95-4.436 0-2.159-.853-4.385-2.95-4.385-2.098 0-3.036 2.26-3.036 4.419zM101.413 13.39a40.968 40.968 0 016.208-.455c2.96-.187 5.899.602 8.357 2.243a8.966 8.966 0 012.657 3.395 8.871 8.871 0 01.754 4.228 10.22 10.22 0 01-.774 4.47 10.325 10.325 0 01-2.637 3.71 14.875 14.875 0 01-9.466 2.614 39.37 39.37 0 01-5.236-.304l.137-19.9zm4.605 16.46c.53.075 1.067.103 1.603.085 4.212 0 6.975-2.243 6.975-7.083a5.768 5.768 0 00-.307-2.555 5.832 5.832 0 00-1.389-2.176 5.91 5.91 0 00-2.201-1.374 5.962 5.962 0 00-2.584-.304 9.127 9.127 0 00-2.097.186V29.85zM127.235 14.554a2.39 2.39 0 01-.345 1.377 2.428 2.428 0 01-1.066.947 2.465 2.465 0 01-2.705-.441 2.39 2.39 0 01-.582-2.649c.183-.448.497-.832.903-1.101.406-.27.884-.412 1.373-.41a2.305 2.305 0 011.711.619 2.24 2.24 0 01.711 1.659zm-4.759 18.737V18.636h4.622V33.29h-4.622zM144.836 31.166a8.214 8.214 0 01-.408 3.546 8.298 8.298 0 01-1.877 3.048 9.06 9.06 0 01-6.004 1.805c-1.842.041-3.67-.34-5.338-1.113l.921-3.474a9.067 9.067 0 004.315 1.113 3.567 3.567 0 001.551-.192 3.536 3.536 0 001.315-.836 3.48 3.48 0 00.988-2.851v-.928a4.767 4.767 0 01-1.761 1.43 4.822 4.822 0 01-2.23.46c-3.667 0-6.276-2.935-6.276-7.135 0-4.739 3.053-7.74 6.72-7.74a4.508 4.508 0 012.333.495 4.447 4.447 0 011.743 1.612l.153-1.686h3.991c0 .961-.119 2.192-.119 4.368l-.017 8.078zm-4.622-6.56c.034-.28.034-.563 0-.844a2.509 2.509 0 00-.917-1.469 2.56 2.56 0 00-1.658-.537c-1.706 0-3.036 1.5-3.036 4.165 0 2.193 1.091 3.896 3.001 3.896a2.508 2.508 0 001.55-.499c.446-.333.765-.805.906-1.34.121-.393.172-.803.154-1.214v-2.158zM153.296 14.554a2.271 2.271 0 01-1.544 2.191 2.323 2.323 0 01-.947.12 2.29 2.29 0 01-1.729-.624 2.241 2.241 0 01-.692-1.687 2.418 2.418 0 01.784-1.585 2.473 2.473 0 013.326 0c.453.413.733.978.785 1.585h.017zm-4.776 18.737V18.636h4.622V33.29h-4.622zM156.911 13.39a41.397 41.397 0 016.226-.455 13.43 13.43 0 018.459 2.243 8.936 8.936 0 012.662 3.394 8.839 8.839 0 01.749 4.23 10.206 10.206 0 01-.774 4.469 10.326 10.326 0 01-2.637 3.71 14.875 14.875 0 01-9.466 2.614 39.87 39.87 0 01-5.219-.388V13.39zm4.622 16.46a9.28 9.28 0 001.604.085c4.212 0 6.975-2.243 6.975-7.083a5.795 5.795 0 00-.308-2.525 5.841 5.841 0 00-1.363-2.157 5.933 5.933 0 00-2.159-1.381 5.984 5.984 0 00-2.548-.346 9.067 9.067 0 00-2.081.186l-.12 13.222zM181.488 27.422c.12 1.889 2.03 2.783 4.179 2.783a12.266 12.266 0 004.093-.624l.614 3.086a14.26 14.26 0 01-5.372.928c-5.117 0-7.914-2.884-7.914-7.471a7.28 7.28 0 01.427-2.971c.348-.951.89-1.821 1.592-2.555a7.442 7.442 0 012.492-1.714 7.51 7.51 0 012.977-.586c4.792 0 6.617 3.694 6.617 7.32.004.605-.048 1.208-.153 1.804h-9.552zm5.424-3.12a2.622 2.622 0 00-.637-2.058 2.681 2.681 0 00-1.972-.91 3.07 3.07 0 00-2.011.934 3.009 3.009 0 00-.838 2.034h5.458zM193.956 23.307c0-1.821 0-3.373-.119-4.671h4.008l.222 2.04a5.328 5.328 0 011.983-1.774 5.408 5.408 0 012.604-.604c3.019 0 5.305 2.007 5.305 6.325v8.668h-4.622v-8.129c0-1.889-.665-3.17-2.32-3.17a2.524 2.524 0 00-1.459.466 2.487 2.487 0 00-.912 1.22c-.117.37-.169.759-.153 1.147v8.432h-4.605l.068-9.95zM216.691 14.672v3.964h3.326v3.373h-3.309v5.312c0 1.686.461 2.563 1.825 2.563a5.18 5.18 0 001.365-.118v3.458c-.97.277-1.976.407-2.985.388a4.892 4.892 0 01-3.411-1.265 5.988 5.988 0 01-1.279-4.351v-6.072h-1.962v-3.373h1.962v-2.647l4.468-1.232z" fill="#878787"/></symbol><symbol fill="none" viewBox="0 0 380 91" id="logo-lab" xmlns="http://www.w3.org/2000/svg"><path d="M38.04 0l2.143.334a33.72 33.72 0 0115.22 6.684 34.038 34.038 0 0111.72 16.71 32.646 32.646 0 011.473 7.385 33.773 33.773 0 01-7.132 24.028 33.584 33.584 0 01-10.632 9.057c-.335.175-.6.458-.754.802L37.773 90.582c-.06.16-.158.303-.284.418V57.18c.67-.134 1.322-.25 1.975-.401a23.296 23.296 0 0013.096-8.15 23.214 23.214 0 005.114-14.533c0-5.284-1.804-10.41-5.114-14.533a23.296 23.296 0 00-13.096-8.15 23.103 23.103 0 00-1.674-.301c-.234 0-.352-.134-.335-.368V.568 0h.586z" fill="#E11F25"/><path d="M31.193 0V10.527c0 .518 0 .501-.486.585a22.975 22.975 0 00-11.87 5.597 22.446 22.446 0 00-7.451 13.368 22.495 22.495 0 004.671 18.38 22.794 22.794 0 0014.081 8.556l.954.167v10.945c-.25.016-.502.016-.753 0a34.386 34.386 0 01-19.619-9.173A34.267 34.267 0 01.503 39.886 32.336 32.336 0 010 32.366a34.216 34.216 0 017.95-20.202A34.334 34.334 0 0126.47.785c1.306-.317 2.646-.468 3.985-.701h.285L31.193 0zM79.998 21.973c2.336-.379 4.7-.563 7.066-.551a11.736 11.736 0 018.053 2.372 7.702 7.702 0 012.511 6 8.34 8.34 0 01-2.193 6.115 11.86 11.86 0 01-8.773 3.141 12.554 12.554 0 01-2.947-.25v11.479h-3.717V21.973zm3.717 13.802c1.01.229 2.045.33 3.08.3 4.471 0 7.183-2.171 7.183-6.115 0-3.943-2.678-5.614-6.697-5.614a15.841 15.841 0 00-3.499.3l-.067 11.13zM101.848 36.126c0-2.423 0-4.512-.168-6.416h3.349l.134 4.026h.167a6.163 6.163 0 012.122-3.174 6.186 6.186 0 013.588-1.32c.355-.008.709.032 1.054.117v3.525a5.783 5.783 0 00-1.272-.117 5.245 5.245 0 00-3.423 1.447 5.226 5.226 0 00-1.6 3.349c-.099.552-.155 1.11-.167 1.671v10.978h-3.784V36.126zM133.945 39.819c0 7.603-5.291 10.928-10.264 10.928-5.575 0-9.878-4.094-9.878-10.594 0-6.884 4.504-10.911 10.213-10.911s9.929 4.277 9.929 10.577zm-16.291.284c0 4.495 2.595 7.903 6.262 7.903 3.666 0 6.261-3.342 6.261-7.987 0-3.492-1.674-7.92-6.178-7.92s-6.345 4.027-6.345 8.004zM138.867 22.006a54.129 54.129 0 017.886-.584c5.324 0 9.108 1.22 11.619 3.559a13.191 13.191 0 014.035 10.293 15.101 15.101 0 01-4.135 11.128c-2.679 2.674-7.116 4.127-12.691 4.127a63.087 63.087 0 01-6.698-.334l-.016-28.189zm3.7 25.332c1.242.171 2.496.244 3.75.217 7.92 0 12.223-4.428 12.223-12.164 0-6.684-3.784-11.045-11.62-11.045-1.46-.025-2.92.104-4.353.384v22.608zM171.281 23.928a2.18 2.18 0 01-.667 1.683 2.203 2.203 0 01-1.71.606 2.227 2.227 0 01-2.26-2.289 2.264 2.264 0 011.436-2.18c.288-.114.597-.169.908-.16a2.231 2.231 0 012.153 1.438c.109.288.157.595.14.902zm-4.169 26.35V29.71h3.751v20.57h-3.751zM194.839 29.71a91.461 91.461 0 00-.168 5.647v11.948c0 4.712-.938 7.602-2.947 9.39a10.897 10.897 0 01-7.551 2.457 13.416 13.416 0 01-6.848-1.671l.938-2.858a11.571 11.571 0 006.044 1.671c3.834 0 6.697-2.005 6.697-7.185v-2.322a7.375 7.375 0 01-2.87 2.568 7.397 7.397 0 01-3.777.774c-5.023 0-8.773-4.345-8.773-10.026 0-6.968 4.554-10.912 9.292-10.912a6.9 6.9 0 016.43 3.56l.167-3.092 3.366.05zm-3.885 8.104a5.272 5.272 0 00-.201-1.671 5.396 5.396 0 00-1.948-2.866 5.414 5.414 0 00-3.292-1.094c-3.583 0-6.145 3.024-6.145 7.786 0 4.027 2.059 7.386 6.094 7.386a5.48 5.48 0 003.25-1.098 5.457 5.457 0 001.957-2.812 6.797 6.797 0 00.285-1.989v-3.642zM204.801 23.928a2.195 2.195 0 01-.668 1.683 2.19 2.19 0 01-1.71.606 2.23 2.23 0 01-2.107-1.41 2.219 2.219 0 01-.153-.879 2.281 2.281 0 011.439-2.175c.288-.115.595-.171.905-.164a2.231 2.231 0 012.154 1.437c.109.288.156.595.14.902zm-4.169 26.35V29.71h3.75v20.57h-3.75zM210.728 22.006a54.064 54.064 0 017.869-.584c5.325 0 9.125 1.22 11.637 3.559a13.195 13.195 0 014.052 10.293 15.114 15.114 0 01-4.136 11.128c-2.679 2.674-7.116 4.127-12.691 4.127a63.055 63.055 0 01-6.697-.334l-.034-28.189zm3.7 25.332c1.243.171 2.497.244 3.751.217 7.919 0 12.222-4.428 12.222-12.164 0-6.684-3.784-11.045-11.62-11.045a20.839 20.839 0 00-4.353.384v22.608zM241.217 40.67a6.582 6.582 0 004.271 6.742 6.607 6.607 0 002.811.394c1.952.06 3.893-.3 5.693-1.053l.653 2.674a16.957 16.957 0 01-6.865 1.27c-6.345 0-10.129-4.161-10.129-10.377 0-6.216 3.65-11.078 9.661-11.078 6.697 0 8.522 5.898 8.522 9.691-.008.56-.053 1.118-.134 1.671l-14.483.067zm11-2.673c0-2.389-.988-6.082-5.207-6.082-3.784 0-5.441 3.476-5.743 6.082h10.95zM260.472 35.274c0-2.122 0-3.877-.168-5.565h3.349l.201 3.342a7.575 7.575 0 012.869-2.876 7.597 7.597 0 013.945-.983c2.863 0 7.283 1.67 7.283 8.755V50.23h-3.75V38.432c0-3.342-1.222-6.082-4.755-6.082a5.364 5.364 0 00-3.137 1.095 5.347 5.347 0 00-1.886 2.731 5.442 5.442 0 00-.251 1.671v12.382h-3.751l.051-14.955zM288.466 23.794v5.915h5.357v2.841h-5.357v11.095c0 2.54.72 3.994 2.812 3.994a8.842 8.842 0 002.16-.25l.184 2.806a9.604 9.604 0 01-3.348.502 5.234 5.234 0 01-3.968-1.571 7.654 7.654 0 01-1.44-5.347V32.55h-3.198v-2.84h3.198v-5.013l3.6-.903z" fill="#7D7D7D"/><path d="M380 22.909h-77.303v29.793H380V22.909z" fill="#E11F25"/><path d="M313.363 21.622h3.7v25.549h12.273v3.108h-15.973V21.622zM344.756 50.279l-.301-2.59h-.118a7.714 7.714 0 01-6.312 3.058 5.884 5.884 0 01-5.827-3.554 5.856 5.856 0 01-.468-2.361c0-5.013 4.42-7.687 12.39-7.653v-.418a4.245 4.245 0 00-4.688-4.762c-1.892.01-3.744.536-5.358 1.52l-.888-2.456a12.78 12.78 0 016.698-1.821c6.312 0 7.835 4.277 7.835 8.354V45.3c-.029 1.65.088 3.3.352 4.929l-3.315.05zm-.553-10.51c-4.085-.084-8.723.651-8.723 4.645a3.345 3.345 0 003.533 3.559 5.027 5.027 0 005.023-3.442c.137-.381.21-.782.218-1.187l-.051-3.575zM353.697 50.279c.083-1.404.184-3.492.184-5.314V20.051h3.7v12.917h.084a7.697 7.697 0 017.032-3.776c5.107 0 8.723 4.244 8.69 10.493 0 7.352-4.655 11.012-9.243 11.012a7.326 7.326 0 01-6.898-3.877h-.134l-.167 3.342-3.248.117zm3.884-8.255c.013.461.069.92.168 1.37a5.762 5.762 0 002.035 3.144 5.78 5.78 0 003.54 1.235c3.918 0 6.262-3.192 6.262-7.92 0-4.111-2.126-7.637-6.145-7.637a5.967 5.967 0 00-3.593 1.318 5.948 5.948 0 00-2.049 3.227 6.493 6.493 0 00-.218 1.537v3.726z" fill="#fff"/></symbol><symbol fill="none" viewBox="0 0 590 96" id="logo-text" xmlns="http://www.w3.org/2000/svg"><path d="M16.131 3.81v71.248H0V3.81h16.131zM29.08 39.848c0-6.436-.214-11.831-.428-16.564h13.684l.642 7.099h.332a17.91 17.91 0 016.758-6.187 17.997 17.997 0 018.946-2.048c3.003-.152 5.98.617 8.529 2.204a14.64 14.64 0 015.726 6.67h.214a22.46 22.46 0 016.77-6.342 19.9 19.9 0 019.884-2.532c9.978 0 17.509 6.98 17.509 22.504v30.406H91.919V46.947c0-7.525-2.376-11.831-7.65-11.831a8.027 8.027 0 00-4.674 1.577 7.976 7.976 0 00-2.858 4.007 17.278 17.278 0 00-.522 4.117v30.241H60.487V46c0-6.46-2.376-10.908-7.531-10.908a8.265 8.265 0 00-4.674 1.678 8.212 8.212 0 00-2.857 4.048 10.915 10.915 0 00-.642 4.141v30.1H29.08v-35.21zM119.501 40.7c0-6.768-.213-12.47-.427-17.345h13.969l.737 7.1h.214a20.15 20.15 0 017.62-6.32 20.237 20.237 0 019.723-1.94c11.356 0 21.548 9.844 21.548 26.337 0 18.93-11.879 27.686-23.544 27.686a16.19 16.19 0 01-7.465-1.333 16.12 16.12 0 01-6.029-4.583h-.214V96h-16.132V40.7zm16.132 12.163c-.006 1.136.106 2.27.333 3.384a9.69 9.69 0 003.412 5.46 9.763 9.763 0 006.091 2.135c7.127 0 11.142-5.797 11.142-14.576 0-8.258-3.706-14.482-10.928-14.482a10.144 10.144 0 00-6.256 2.386 10.07 10.07 0 00-3.39 5.754c-.223.939-.335 1.9-.333 2.864l-.071 7.075zM182.127 0h16.131v75.058h-16.131V0zM253.661 62.588c-.107 4.175.179 8.35.856 12.47h-14.564l-.974-5.182h-.309a18.717 18.717 0 01-6.713 4.854 18.782 18.782 0 01-8.159 1.488 15.95 15.95 0 01-6.314-.99 15.899 15.899 0 01-5.412-3.387 15.817 15.817 0 01-3.635-5.237 15.766 15.766 0 01-1.269-6.24c0-13.417 12.092-19.758 30.457-19.758v-.64c0-2.863-1.497-6.767-9.503-6.767a29.384 29.384 0 00-14.255 3.904l-3.088-10.364a42.76 42.76 0 0120.17-4.733c17.296 0 22.712 10.152 22.712 22.41v18.172zm-15.608-11.95c-8.482 0-15.063 2.012-15.063 8.14a5.757 5.757 0 001.756 4.537 5.803 5.803 0 004.611 1.592 8.98 8.98 0 005.13-1.64 8.92 8.92 0 003.257-4.276c.213-.899.317-1.82.309-2.744v-5.608z" fill="#868686"/><path d="M266.705 58.47a41.347 41.347 0 0017.937 4.426c7.436 0 11.356-3.053 11.356-7.714 0-4.662-3.398-6.98-11.879-9.939-11.879-4.235-19.743-10.79-19.743-21.13 0-12.163 10.311-21.297 27.084-21.297a41.839 41.839 0 0118.246 3.597l-3.611 12.896a33.564 33.564 0 00-14.849-3.384c-7.127 0-10.406 3.29-10.406 6.886 0 4.543 3.92 6.555 13.257 10.033 12.639 4.733 18.484 11.216 18.484 21.297 0 11.95-9.123 22.1-28.771 22.1a46.722 46.722 0 01-20.265-4.448l3.16-13.322zM339.736 9.465v13.89h11.57v11.832h-11.57v18.717c0 6.223 1.592 9.086 6.391 9.086 1.595.043 3.189-.1 4.751-.426v12.163a34.29 34.29 0 01-10.406 1.373 17.264 17.264 0 01-12.211-4.45c-2.97-3.052-4.443-8.02-4.443-15.333V35.21h-6.913V23.38h6.913v-9.63l15.918-4.284zM402.884 62.588c-.108 4.175.178 8.35.855 12.47H389.2l-.975-5.182h-.308a18.704 18.704 0 01-6.734 4.867 18.764 18.764 0 01-8.186 1.475 15.956 15.956 0 01-6.359-.946 15.899 15.899 0 01-5.461-3.378 15.83 15.83 0 01-3.672-5.255 15.763 15.763 0 01-1.281-6.275c0-13.417 12.092-19.759 30.457-19.759v-.638c0-2.864-1.497-6.768-9.503-6.768a29.387 29.387 0 00-14.255 3.904l-2.969-10.364a42.76 42.76 0 0120.17-4.733c17.296 0 22.712 10.152 22.712 22.41l.048 18.172zm-15.633-11.95c-8.481 0-15.062 2.012-15.062 8.14a5.757 5.757 0 001.756 4.537 5.818 5.818 0 004.611 1.593 8.983 8.983 0 005.13-1.642 8.932 8.932 0 003.257-4.274c.213-.9.317-1.821.308-2.745v-5.608zM432.058 9.465v13.89h11.57v11.832h-11.57v18.717c0 6.223 1.592 9.086 6.391 9.086 1.595.043 3.19-.1 4.752-.426v12.163a34.29 34.29 0 01-10.406 1.373 17.266 17.266 0 01-12.212-4.45c-2.969-3.052-4.442-8.02-4.442-15.333V35.21h-6.795V23.38h6.914v-9.63l15.798-4.284zM468.788 8.992a7.973 7.973 0 01-2.573 5.92 8.037 8.037 0 01-6.122 2.102 7.968 7.968 0 01-5.949-2.19 7.897 7.897 0 01-2.438-5.832 8.507 8.507 0 012.655-5.731 8.571 8.571 0 015.886-2.339c2.19 0 4.297.837 5.886 2.339a8.503 8.503 0 012.655 5.731zm-16.63 66.067V23.356h16.131v51.703h-16.131zM531.627 48.627c0 18.93-13.47 27.59-27.393 27.59-15.181 0-26.846-9.938-26.846-26.643 0-16.706 11.048-27.473 27.797-27.473 15.822 0 26.442 10.885 26.442 26.526zm-37.466.52c0 8.898 3.73 15.547 10.62 15.547 6.367 0 10.287-6.223 10.287-15.641 0-7.62-2.97-15.428-10.287-15.428s-10.62 7.927-10.62 15.523zM540.75 39.848c0-6.436-.214-11.831-.428-16.564h14.018l.736 7.099h.309a18.673 18.673 0 016.936-6.238 18.757 18.757 0 019.1-2.115c10.62 0 18.579 7.099 18.579 22.314v30.714h-16.132V46.403c0-6.65-2.375-11.193-8.172-11.193a8.89 8.89 0 00-5.108 1.69 8.831 8.831 0 00-3.184 4.32 11.59 11.59 0 00-.522 4.023v29.815H540.75v-35.21z" fill="#E11F25"/></symbol><symbol fill="none" viewBox="0 0 150 910" id="logo-text-alt" xmlns="http://www.w3.org/2000/svg"><path d="M5.953 885.119h111.326V910H5.953v-24.881zM62.263 865.149c-10.057 0-18.487.329-25.881.659v-21.106l11.092-.99v-.513a27.754 27.754 0 01-9.668-10.423 27.46 27.46 0 01-3.199-13.798 22.49 22.49 0 013.444-13.154 22.793 22.793 0 0110.42-8.832v-.33a34.819 34.819 0 01-9.908-10.443 30.385 30.385 0 01-3.956-15.244c0-15.39 10.907-27.006 35.161-27.006h47.511v24.258H73.355c-11.758 0-18.487 3.664-18.487 11.799.035 2.6.898 5.123 2.465 7.209a12.456 12.456 0 006.26 4.407c2.105.523 4.265.794 6.434.806h47.252v24.258H71.876c-10.094 0-17.045 3.664-17.045 11.616a12.643 12.643 0 002.622 7.209 12.826 12.826 0 006.326 4.407 17.261 17.261 0 006.47.989h47.03v24.222H62.263zM63.594 725.684c-10.574 0-19.485.33-27.101.66v-21.547l11.092-1.135v-.33a31.184 31.184 0 01-9.874-11.754 30.87 30.87 0 01-3.03-14.996c0-17.515 15.38-33.235 41.151-33.235 29.579 0 43.259 18.321 43.259 36.313a24.696 24.696 0 01-2.082 11.515 24.922 24.922 0 01-7.162 9.299v.329H150v24.881H63.594zm19.004-24.881c1.776.01 3.547-.162 5.287-.513a15.172 15.172 0 008.532-5.262 14.94 14.94 0 003.337-9.395c0-10.993-9.059-17.186-22.776-17.186-12.903 0-22.627 5.717-22.627 16.856a15.53 15.53 0 003.727 9.649 15.774 15.774 0 008.991 5.228c1.466.344 2.968.516 4.474.513l11.055.11zM0 629.092v-24.881h117.279v24.881H0zM97.794 518.759c6.522.167 13.046-.275 19.485-1.319v22.463l-8.098 1.502v.476a28.883 28.883 0 017.584 10.354 28.651 28.651 0 012.325 12.585 24.33 24.33 0 01-1.546 9.739 24.503 24.503 0 01-5.293 8.348 24.759 24.759 0 01-8.183 5.606 24.924 24.924 0 01-9.75 1.957c-20.964 0-30.872-18.651-30.872-46.976h-.999c-4.473 0-10.574 2.308-10.574 14.657a44.876 44.876 0 006.1 21.986l-16.194 4.764a65.267 65.267 0 01-7.394-31.111c0-26.676 15.861-35.031 35.013-35.031h28.396zm-18.672 24.075c0 13.082 3.143 23.232 12.719 23.232a9.099 9.099 0 003.845-.579 9.018 9.018 0 003.242-2.129 8.935 8.935 0 002.037-3.284 8.86 8.86 0 00.452-3.828 13.736 13.736 0 00-2.564-7.913 13.932 13.932 0 00-6.68-5.023 18.1 18.1 0 00-4.288-.476h-8.763zM91.36 498.642a63.118 63.118 0 006.915-27.666c0-11.469-4.77-17.515-12.053-17.515-7.284 0-10.908 5.24-15.53 18.322-6.617 18.321-16.859 30.45-33.016 30.45C18.67 502.233 4.4 486.33 4.4 460.46a63.81 63.81 0 015.62-28.142l20.15 5.57a51.21 51.21 0 00-5.287 22.902c0 10.993 5.14 16.049 10.76 16.049 7.098 0 10.24-6.046 15.676-20.447 7.395-19.494 17.525-28.508 33.276-28.508 18.671 0 34.533 14.071 34.533 44.375a71.31 71.31 0 01-6.951 31.257l-20.816-4.874zM14.79 386.001h21.703v-17.846h18.486v17.846h29.246c9.724 0 14.198-2.456 14.198-9.857a31.317 31.317 0 00-.666-7.329h19.004a52.264 52.264 0 012.145 16.05 26.429 26.429 0 01-6.951 18.834c-4.77 4.581-12.534 6.853-23.959 6.853h-32.98v10.663H36.53v-10.663H21.48l-6.692-24.551zM97.794 288.603c6.522.166 13.046-.275 19.485-1.319v22.425l-8.098 1.503v.476a28.845 28.845 0 017.604 10.385 28.622 28.622 0 012.305 12.627 24.298 24.298 0 01-1.478 9.807 24.5 24.5 0 01-5.277 8.424 24.733 24.733 0 01-8.213 5.663 24.92 24.92 0 01-9.804 1.976c-20.964 0-30.872-18.651-30.872-46.977h-.999c-4.473 0-10.574 2.309-10.574 14.658a44.876 44.876 0 006.1 21.986l-16.194 4.58a65.26 65.26 0 01-7.394-31.11c0-26.676 15.861-35.031 35.013-35.031l28.396-.073zm-18.672 24.111c0 13.082 3.143 23.232 12.719 23.232a9.099 9.099 0 003.845-.579 9.018 9.018 0 003.242-2.129 8.935 8.935 0 002.037-3.284 8.865 8.865 0 00.452-3.829 13.733 13.733 0 00-2.564-7.912 13.932 13.932 0 00-6.68-5.023 18.099 18.099 0 00-4.288-.476h-8.763zM14.79 243.605h21.703V225.76h18.486v17.845h29.246c9.724 0 14.198-2.455 14.198-9.857a31.317 31.317 0 00-.666-7.329h19.004a52.268 52.268 0 012.145 16.05 26.429 26.429 0 01-6.951 18.834c-4.77 4.581-12.534 6.853-23.959 6.853h-32.98v10.48H36.53v-10.663H21.48l-6.692-24.368zM14.05 186.954a12.582 12.582 0 015.045 1.02 12.5 12.5 0 014.203 2.949 12.367 12.367 0 012.646 4.379 12.28 12.28 0 01.64 5.064 12.14 12.14 0 01-.746 4.941 12.221 12.221 0 01-2.676 4.234 12.354 12.354 0 01-4.16 2.821 12.444 12.444 0 01-4.952.939 13.362 13.362 0 01-8.956-4.095 13.128 13.128 0 01-3.653-9.079c0-3.378 1.307-6.627 3.653-9.078a13.362 13.362 0 018.956-4.095zm103.229 25.65H36.492v-24.88h80.787v24.88zM75.98 90.033c29.579 0 43.111 20.776 43.111 42.249 0 23.415-15.529 41.407-41.632 41.407-26.103 0-42.926-17.039-42.926-42.872 0-24.405 17.008-40.784 41.447-40.784zm.813 57.786c13.902 0 24.292-5.753 24.292-16.379 0-9.821-9.724-15.867-24.44-15.867-11.905 0-24.106 4.58-24.106 15.867 0 11.286 12.386 16.379 24.254 16.379zM62.263 75.962c-10.057 0-18.487.33-25.881.66v-21.62l11.092-1.136v-.477a28.93 28.93 0 01-9.747-10.698 28.628 28.628 0 01-3.305-14.036C34.422 12.275 45.514 0 69.288 0h47.991v24.88H72.504c-10.39 0-17.488 3.665-17.488 12.606a13.587 13.587 0 002.64 7.877 13.784 13.784 0 006.751 4.912c2.031.632 4.159.904 6.286.806h46.586v24.88H62.263z" fill="#E5E5E4" fill-opacity=".5"/></symbol><symbol viewBox="0 0 578.106 578.106" id="phone" xmlns="http://www.w3.org/2000/svg"><path d="M577.83 456.128c1.225 9.385-1.635 17.545-8.568 24.48l-81.396 80.781c-3.672 4.08-8.465 7.551-14.381 10.404-5.916 2.857-11.729 4.693-17.439 5.508-.408 0-1.635.105-3.676.309-2.037.203-4.689.307-7.953.307-7.754 0-20.301-1.326-37.641-3.979s-38.555-9.182-63.645-19.584c-25.096-10.404-53.553-26.012-85.376-46.818-31.823-20.805-65.688-49.367-101.592-85.68-28.56-28.152-52.224-55.08-70.992-80.783-18.768-25.705-33.864-49.471-45.288-71.299-11.425-21.828-19.993-41.616-25.705-59.364S4.59 177.362 2.55 164.51-.306 141.56.102 134.216c.408-7.344.612-11.424.612-12.24.816-5.712 2.652-11.526 5.508-17.442s6.324-10.71 10.404-14.382L98.022 8.756c5.712-5.712 12.24-8.568 19.584-8.568 5.304 0 9.996 1.53 14.076 4.59s7.548 6.834 10.404 11.322l65.484 124.236c3.672 6.528 4.692 13.668 3.06 21.42-1.632 7.752-5.1 14.28-10.404 19.584l-29.988 29.988c-.816.816-1.53 2.142-2.142 3.978s-.918 3.366-.918 4.59c1.632 8.568 5.304 18.36 11.016 29.376 4.896 9.792 12.444 21.726 22.644 35.802s24.684 30.293 43.452 48.653c18.36 18.77 34.68 33.354 48.96 43.76 14.277 10.4 26.215 18.053 35.803 22.949 9.588 4.896 16.932 7.854 22.031 8.871l7.648 1.531c.816 0 2.145-.307 3.979-.918 1.836-.613 3.162-1.326 3.979-2.143l34.883-35.496c7.348-6.527 15.912-9.791 25.705-9.791 6.938 0 12.443 1.223 16.523 3.672h.611l118.115 69.768c8.571 5.308 13.67 12.038 15.303 20.198z"/></symbol><symbol fill="none" viewBox="0 0 320 385" id="step" xmlns="http://www.w3.org/2000/svg"><path d="M315.626 161.983A157.894 157.894 0 00143.878 4.473 157.889 157.889 0 002.317 189.588a157.9 157.9 0 00110.743 123.61l39.939 68.774a5.669 5.669 0 009.784 0l39.938-68.774a157.896 157.896 0 00112.905-151.215z" fill="#fff"/><path d="M320 157.893a157.9 157.9 0 00-87.107-141.242A157.89 157.89 0 0044.538 263.177a157.89 157.89 0 0072.922 46.06l39.835 68.671a5.648 5.648 0 004.892 2.83 5.643 5.643 0 004.892-2.83l39.991-68.671A157.888 157.888 0 00320 157.893z" fill="url(#kpaint0_linear)"/><path d="M320 157.893a157.9 157.9 0 00-87.107-141.242A157.89 157.89 0 0044.538 263.177a157.89 157.89 0 0072.922 46.06l39.835 68.671a5.648 5.648 0 004.892 2.83 5.643 5.643 0 004.892-2.83l39.991-68.671A157.888 157.888 0 00320 157.893z" fill="#E5E5E4"/><path d="M211.965 278.241c67.258-26.888 99.985-103.21 73.097-170.469-26.887-67.26-103.208-99.987-170.466-73.099-67.258 26.889-99.985 103.21-73.097 170.469 26.887 67.26 103.208 99.987 170.466 73.099z" fill="#FDFDFD"/><path opacity=".1" d="M249.055 242.256c47.378-47.378 47.378-124.193 0-171.571-47.377-47.378-124.19-47.378-171.567 0-47.378 47.378-47.378 124.193 0 171.571 47.377 47.377 124.19 47.377 171.567 0z" fill="url(#kpaint1_linear)"/><path d="M249.055 242.256c47.378-47.378 47.378-124.193 0-171.571-47.377-47.378-124.19-47.378-171.567 0-47.378 47.378-47.378 124.193 0 171.571 47.377 47.377 124.19 47.377 171.567 0z" stroke="#E20D18" stroke-width=".5" stroke-miterlimit="10"/><defs><linearGradient id="kpaint0_linear" x1="4.374" y1="190.429" x2="320" y2="190.429" gradientUnits="userSpaceOnUse"><stop stop-color="#65B6E5"/><stop offset="1" stop-color="#71C6CD"/></linearGradient><linearGradient id="kpaint1_linear" x1="37.008" y1="285.708" x2="247.187" y2="70.589" gradientUnits="userSpaceOnUse"><stop offset=".33" stop-color="#010101" stop-opacity="0"/><stop offset="1" stop-color="#010101"/></linearGradient></defs></symbol><symbol viewBox="0 0 25 25" id="twitter" xmlns="http://www.w3.org/2000/svg"><path d="M12.5 0C5.597 0 0 5.597 0 12.5S5.597 25 12.5 25 25 19.403 25 12.5C25 5.595 19.403 0 12.5 0zm6.219 9.694l.01.398c0 4.069-3.096 8.756-8.757 8.756a8.71 8.71 0 01-4.717-1.382 6.175 6.175 0 004.556-1.273 3.083 3.083 0 01-2.875-2.138c.189.036.38.053.58.053.28 0 .553-.036.81-.106a3.08 3.08 0 01-2.468-3.018v-.039c.415.232.889.37 1.394.386a3.077 3.077 0 01-.954-4.108 8.734 8.734 0 006.344 3.216 3.078 3.078 0 015.245-2.806c.7-.14 1.36-.395 1.955-.747a3.086 3.086 0 01-1.353 1.703 6.17 6.17 0 001.767-.484 6.22 6.22 0 01-1.537 1.589z" fill="#FFF" fill-rule="nonzero"/></symbol><symbol fill="none" viewBox="0 0 80 80" id="up-arrow" xmlns="http://www.w3.org/2000/svg"><path d="M77.36 40c0 20.64-16.72 37.36-37.36 37.36S2.64 60.64 2.64 40 19.36 2.64 40 2.64C60.64 2.72 77.28 19.36 77.36 40z" fill="#fff"/><path d="M40 0C17.92 0 0 17.92 0 40s17.92 40 40 40 40-17.92 40-40S62.08 0 40 0zm0 77.36C19.36 77.36 2.64 60.64 2.64 40S19.36 2.64 40 2.64 77.28 19.36 77.36 40c0 20.64-16.72 37.36-37.36 37.36z" fill="#E30613"/><path d="M54.642 34.435L40.706 22.712s-.07-.07-.139-.07c-.07 0-.07-.07-.14-.07 0 0-.069 0-.069-.07-.07 0-.14 0-.209-.07-.07-.071-.14 0-.209 0h-.07H39.66c-.07 0-.14 0-.14.07 0 0-.069 0-.069.07-.07 0-.07.07-.14.07 0 0-.069 0-.139.07L25.236 34.435c-.349.28-.488.702-.419 1.123.07.421.349.772.767.913.418.14.836.07 1.185-.21l12.055-10.11v30.256c0 .632.558 1.193 1.185 1.193s1.184-.562 1.184-1.193V26.082L53.25 36.19c.348.28.766.35 1.184.21.419-.14.697-.49.767-.912-.07-.421-.279-.843-.558-1.053z" fill="#E30613"/></symbol><symbol viewBox="0 0 310 310" id="youtube" xmlns="http://www.w3.org/2000/svg"><path d="M297.917 64.645c-11.19-13.302-31.85-18.728-71.306-18.728H83.386c-40.359 0-61.369 5.776-72.517 19.938C0 79.663 0 100.008 0 128.166v53.669c0 54.551 12.896 82.248 83.386 82.248h143.226c34.216 0 53.176-4.788 65.442-16.527C304.633 235.518 310 215.863 310 181.835v-53.669c0-29.695-.841-50.16-12.083-63.521zm-98.896 97.765l-65.038 33.991a9.997 9.997 0 01-14.632-8.863v-67.764a10 10 0 0114.609-8.874l65.038 33.772a10 10 0 01.023 17.738z"/></symbol></svg>