<?xml version="1.0" standalone="no"?>
<!DOCTYPE svg PUBLIC "-//W3C//DTD SVG 20010904//EN"
 "http://www.w3.org/TR/2001/REC-SVG-20010904/DTD/svg10.dtd">
<svg version="1.0" xmlns="http://www.w3.org/2000/svg"
 width="256.000000pt" height="256.000000pt" viewBox="0 0 256.000000 256.000000"
 preserveAspectRatio="xMidYMid meet">
<metadata>
Created by potrace 1.11, written by Peter Selinger 2001-2013
</metadata>
<g transform="translate(0.000000,256.000000) scale(0.100000,-0.100000)"
fill="#000000" stroke="none">
<path d="M1070 2533 c-30 -8 -62 -15 -71 -17 -46 -11 -163 -64 -233 -105 -87
-50 -240 -193 -295 -274 -51 -75 -109 -199 -137 -294 -23 -76 -27 -107 -28
-233 -1 -159 4 -206 35 -307 65 -210 209 -402 399 -528 84 -56 225 -118 287
-126 5 -1 18 -5 30 -10 11 -4 46 -11 77 -14 l56 -7 -1 161 c-2 158 -2 161 -24
161 -36 0 -156 45 -220 83 -141 83 -251 225 -300 387 -30 100 -26 287 10 385
71 197 239 360 430 418 28 9 62 18 77 21 l27 6 0 155 1 156 -32 -3 c-18 -1
-58 -8 -88 -15z"/>
<path d="M1369 2495 c0 -30 -1 -71 -1 -90 0 -19 1 -64 1 -99 l1 -63 65 -16
c302 -75 510 -339 506 -644 -4 -302 -209 -561 -502 -631 -56 -14 -69 -21 -69
-37 -2 -35 -1 -788 0 -850 l1 -60 33 65 c18 36 67 130 109 210 41 80 111 213
154 297 l79 152 76 50 c87 56 194 158 255 242 71 97 142 263 168 394 10 52 14
248 5 300 -17 100 -21 115 -46 187 -54 149 -118 252 -228 362 -142 143 -327
241 -520 275 -89 16 -86 18 -87 -44z"/>
</g>
</svg>
