<svg width="30" height="30" viewBox="0 0 30 30" fill="none" xmlns="http://www.w3.org/2000/svg">
<path d="M29.3896 27.0063C29.0525 27.0063 28.7791 27.2797 28.7791 27.6168V28.7789H1.22108V24.7098H29.3895C29.7266 24.7098 30 24.4364 30 24.0993C30 23.7622 29.7266 23.4888 29.3895 23.4888H0.610586C0.273491 23.4888 9.15527e-05 23.7622 9.15527e-05 24.0993V29.3894C9.15527e-05 29.7265 0.273491 29.9999 0.610586 29.9999H29.3895C29.7266 29.9999 30 29.7265 30 29.3894V27.6168C30.0001 27.2797 29.7267 27.0063 29.3896 27.0063Z" fill="white"/>
<path d="M14.5684 20.7024C14.6829 20.8169 14.8382 20.8812 15.0001 20.8812C15.162 20.8812 15.3173 20.8169 15.4318 20.7024L23.202 12.932C23.4405 12.6936 23.4405 12.3071 23.202 12.0687C22.9637 11.8303 22.577 11.8303 22.3388 12.0687L15.0001 19.4073L7.66149 12.0687C7.4231 11.8303 7.03645 11.8303 6.79815 12.0687C6.55975 12.3071 6.55975 12.6936 6.79815 12.932L14.5684 20.7024Z" fill="white"/>
<path d="M15.0001 17.4419C15.3372 17.4419 15.6106 17.1685 15.6106 16.8314V0.610494C15.6106 0.2734 15.3372 0 15.0001 0C14.663 0 14.3896 0.2734 14.3896 0.610494V16.8314C14.3896 17.1686 14.6629 17.4419 15.0001 17.4419Z" fill="white"/>
</svg>
