<svg width="380" height="91" viewBox="0 0 380 91" fill="none" xmlns="http://www.w3.org/2000/svg">
<g>
<path d="M38.0402 0L40.1833 0.33419C45.7364 1.25796 50.9689 3.55589 55.4027 7.01799C60.9291 11.2612 65.0195 17.093 67.1229 23.7275C67.8973 26.1245 68.3918 28.6028 68.5963 31.1131C69.3896 39.7386 66.8366 48.339 61.4637 55.1414C58.5951 58.8706 54.9728 61.9562 50.8319 64.1979C50.4973 64.3728 50.2318 64.6555 50.0785 65L37.7723 90.5823C37.7111 90.7416 37.6137 90.8846 37.4877 91V57.18C38.1574 57.0463 38.8104 56.9293 39.4634 56.7789C44.6299 55.6264 49.2488 52.7515 52.5588 48.6282C55.8688 44.5049 57.6725 39.3792 57.6725 34.0958C57.6725 28.8124 55.8688 23.6866 52.5588 19.5633C49.2488 15.44 44.6299 12.5651 39.4634 11.4126C38.9276 11.2956 38.3751 11.1954 37.7891 11.1118C37.5547 11.1118 37.4375 10.9781 37.4542 10.7442V0.568123C37.4542 0.384319 37.4542 0.183805 37.4542 0H38.0402Z" fill="#E11F25"/>
<path d="M31.1928 0C31.1928 2.20566 31.1928 4.41131 31.1928 6.68381V10.527C31.1928 11.045 31.1928 11.0283 30.7073 11.1118C26.2886 11.7845 22.1629 13.73 18.8364 16.7095C14.862 20.158 12.2254 24.8884 11.3858 30.0771C10.7798 33.2956 10.8838 36.6072 11.6906 39.7814C12.4973 42.9557 13.9874 45.9164 16.0571 48.4576C19.5164 52.9632 24.539 56.0148 30.138 57.0129L31.0923 57.18V68.1247C30.8415 68.1414 30.5898 68.1414 30.3389 68.1247C22.9792 67.2586 16.0974 64.0409 10.7204 58.9516C5.34328 53.8623 1.75916 47.1744 0.502812 39.8856C0.0428834 37.4072 -0.125687 34.8837 0.000521138 32.3663C0.386283 24.9501 3.17654 17.8598 7.95091 12.1638C12.7253 6.46768 19.2252 2.47433 26.4713 0.785347C27.7772 0.467866 29.1167 0.317481 30.4561 0.0835476H30.7407L31.1928 0Z" fill="#7D7D7D"/>
<path d="M79.998 21.973C82.3339 21.5941 84.6972 21.4097 87.0636 21.4216C89.9496 21.1927 92.8183 22.0379 95.117 23.7944C95.9485 24.5511 96.6041 25.4801 97.0379 26.5163C97.4718 27.5526 97.6733 28.6709 97.6285 29.7931C97.6905 30.907 97.5284 32.022 97.1517 33.0724C96.775 34.1227 96.1913 35.0872 95.4351 35.9088C94.2613 36.9969 92.8787 37.8362 91.3708 38.3762C89.8629 38.9161 88.261 39.1454 86.6618 39.0502C85.673 39.083 84.6839 38.9989 83.715 38.7995V50.2789H79.998V21.973ZM83.715 35.7751C84.7252 36.004 85.7602 36.1051 86.7957 36.0759C91.2661 36.0759 93.9785 33.9036 93.9785 29.9602C93.9785 26.0167 91.2996 24.3458 87.2813 24.3458C86.1073 24.316 84.9336 24.4169 83.782 24.6465L83.715 35.7751Z" fill="#7D7D7D"/>
<path d="M101.848 36.126C101.848 33.7031 101.848 31.6144 101.68 29.7095H105.029L105.163 33.7365H105.33C105.683 32.481 106.426 31.3696 107.452 30.562C108.478 29.7543 109.734 29.2921 111.04 29.2417C111.395 29.2345 111.749 29.2738 112.094 29.3586V32.8843C111.676 32.7985 111.249 32.7593 110.822 32.7674C109.542 32.8161 108.324 33.3309 107.399 34.2144C106.474 35.098 105.904 36.2892 105.799 37.563C105.7 38.1148 105.644 38.6735 105.632 39.234V50.2121H101.848V36.126Z" fill="#7D7D7D"/>
<path d="M133.945 39.8188C133.945 47.4216 128.654 50.7468 123.681 50.7468C118.106 50.7468 113.803 46.653 113.803 40.153C113.803 33.2686 118.307 29.2416 124.016 29.2416C129.725 29.2416 133.945 33.5193 133.945 39.8188ZM117.654 40.1028C117.654 44.5977 120.249 48.0064 123.916 48.0064C127.582 48.0064 130.177 44.6645 130.177 40.0193C130.177 36.527 128.503 32.099 123.999 32.099C119.495 32.099 117.654 36.126 117.654 40.1028Z" fill="#7D7D7D"/>
<path d="M138.867 22.0064C141.478 21.6195 144.113 21.424 146.753 21.4216C152.077 21.4216 155.861 22.6414 158.372 24.9807C159.75 26.3034 160.825 27.9085 161.521 29.6855C162.218 31.4624 162.52 33.369 162.407 35.2738C162.506 37.3112 162.19 39.3474 161.479 41.2599C160.769 43.1724 159.678 44.9216 158.272 46.4023C155.593 49.0758 151.156 50.5295 145.581 50.5295C143.344 50.537 141.108 50.4254 138.883 50.1954L138.867 22.0064ZM142.567 47.338C143.809 47.509 145.063 47.5817 146.317 47.5552C154.237 47.5552 158.54 43.1272 158.54 35.3907C158.54 28.7069 154.756 24.3457 146.92 24.3457C145.46 24.3209 144 24.4497 142.567 24.7301V47.338Z" fill="#7D7D7D"/>
<path d="M171.281 23.928C171.297 24.2399 171.245 24.5515 171.13 24.8419C171.015 25.1323 170.839 25.3947 170.614 25.6115C170.388 25.8284 170.119 25.9946 169.824 26.0991C169.53 26.2035 169.216 26.2438 168.904 26.2172C168.603 26.2219 168.304 26.1656 168.026 26.0518C167.747 25.9379 167.495 25.7689 167.283 25.555C167.072 25.341 166.906 25.0865 166.796 24.8069C166.687 24.5273 166.635 24.2283 166.644 23.928C166.634 23.6183 166.689 23.31 166.803 23.022C166.918 22.734 167.09 22.4724 167.31 22.2533C167.529 22.0342 167.791 21.8622 168.08 21.7479C168.368 21.6336 168.677 21.5794 168.988 21.5887C169.296 21.579 169.603 21.6333 169.889 21.7481C170.175 21.8629 170.434 22.0357 170.649 22.2556C170.865 22.4755 171.032 22.7377 171.141 23.0256C171.25 23.3135 171.298 23.6208 171.281 23.928ZM167.112 50.2789V29.7095H170.863V50.2789H167.112Z" fill="#7D7D7D"/>
<path d="M194.839 29.7095C194.755 31.1967 194.671 32.8509 194.671 35.3574V47.3047C194.671 52.0167 193.733 54.9075 191.724 56.6954C189.607 58.4343 186.91 59.3115 184.173 59.1517C181.782 59.215 179.417 58.638 177.325 57.4808L178.263 54.6234C180.085 55.726 182.177 56.3043 184.307 56.2944C188.141 56.2944 191.004 54.2892 191.004 49.1093V46.7867C190.292 47.8812 189.302 48.7674 188.134 49.3546C186.966 49.9418 185.663 50.2089 184.357 50.1286C179.334 50.1286 175.584 45.7841 175.584 40.1029C175.584 33.135 180.138 29.1915 184.876 29.1915C186.175 29.1194 187.468 29.4153 188.606 30.045C189.743 30.6748 190.679 31.6128 191.306 32.7507L191.473 29.6594L194.839 29.7095ZM190.954 37.8137C190.977 37.2496 190.909 36.6855 190.753 36.1427C190.437 34.9998 189.752 33.9926 188.805 33.2768C187.858 32.561 186.701 32.1765 185.513 32.1826C181.93 32.1826 179.368 35.207 179.368 39.9692C179.368 43.9962 181.427 47.3548 185.462 47.3548C186.636 47.3458 187.775 46.961 188.712 46.2571C189.65 45.5531 190.336 44.5673 190.669 43.4448C190.862 42.7996 190.958 42.1295 190.954 41.4563V37.8137Z" fill="#7D7D7D"/>
<path d="M204.801 23.928C204.816 24.2399 204.765 24.5515 204.65 24.8419C204.534 25.1323 204.358 25.3947 204.133 25.6115C203.908 25.8284 203.639 25.9946 203.344 26.0991C203.049 26.2035 202.735 26.2438 202.423 26.2172C202.122 26.2219 201.824 26.1656 201.545 26.0518C201.267 25.9379 201.014 25.7689 200.803 25.555C200.592 25.341 200.426 25.0865 200.316 24.8069C200.206 24.5273 200.154 24.2283 200.163 23.928C200.156 23.6189 200.212 23.3117 200.328 23.0248C200.443 22.7378 200.615 22.4772 200.834 22.2586C201.053 22.04 201.315 21.868 201.602 21.7528C201.89 21.6377 202.197 21.5818 202.507 21.5887C202.815 21.579 203.122 21.6333 203.408 21.7481C203.694 21.8629 203.953 22.0357 204.169 22.2556C204.384 22.4755 204.552 22.7377 204.661 23.0256C204.77 23.3135 204.817 23.6208 204.801 23.928ZM200.632 50.2789V29.7095H204.382V50.2789H200.632Z" fill="#7D7D7D"/>
<path d="M210.728 22.0064C213.333 21.6201 215.963 21.4246 218.597 21.4216C223.922 21.4216 227.722 22.6414 230.234 24.9807C231.615 26.3019 232.692 27.9063 233.392 29.6834C234.091 31.4604 234.396 33.3677 234.286 35.2738C234.384 37.3112 234.068 39.3474 233.358 41.2599C232.647 43.1724 231.556 44.9216 230.15 46.4023C227.471 49.0758 223.034 50.5295 217.459 50.5295C215.222 50.537 212.986 50.4254 210.762 50.1954L210.728 22.0064ZM214.428 47.338C215.671 47.509 216.925 47.5817 218.179 47.5552C226.098 47.5552 230.401 43.1272 230.401 35.3907C230.401 28.7069 226.617 24.3457 218.781 24.3457C217.321 24.3209 215.862 24.4497 214.428 24.7301V47.338Z" fill="#7D7D7D"/>
<path d="M241.217 40.6709C241.134 41.623 241.26 42.5817 241.585 43.4805C241.911 44.3792 242.429 45.1965 243.102 45.8754C243.776 46.5543 244.59 47.0787 245.488 47.4121C246.385 47.7455 247.345 47.8798 248.299 47.8059C250.251 47.8659 252.192 47.5069 253.992 46.7532L254.645 49.4267C252.47 50.3215 250.132 50.754 247.78 50.6966C241.435 50.6966 237.651 46.536 237.651 40.32C237.651 34.1041 241.301 29.2416 247.312 29.2416C254.009 29.2416 255.834 35.1401 255.834 38.9332C255.826 39.4925 255.781 40.0507 255.7 40.6041L241.217 40.6709ZM252.217 37.9974C252.217 35.608 251.229 31.9152 247.01 31.9152C243.226 31.9152 241.569 35.3907 241.267 37.9974H252.217Z" fill="#7D7D7D"/>
<path d="M260.472 35.2738C260.472 33.1517 260.472 31.3972 260.304 29.7095H263.653L263.854 33.0514C264.53 31.8499 265.522 30.8555 266.723 30.1752C267.924 29.495 269.288 29.1549 270.668 29.1915C273.531 29.1915 277.951 30.8625 277.951 37.9473V50.2288H274.201V38.4319C274.201 35.09 272.979 32.3496 269.446 32.3496C268.31 32.3737 267.212 32.7574 266.309 33.4452C265.406 34.133 264.746 35.0893 264.423 36.1761C264.253 36.7166 264.168 37.2804 264.172 37.847V50.2288H260.421L260.472 35.2738Z" fill="#7D7D7D"/>
<path d="M288.466 23.7943V29.7095H293.823V32.5501H288.466V43.6452C288.466 46.1851 289.186 47.6388 291.278 47.6388C292.006 47.6444 292.731 47.5602 293.438 47.3881L293.622 50.1953C292.545 50.5593 291.411 50.729 290.274 50.6966C289.539 50.7284 288.806 50.6049 288.122 50.3343C287.438 50.0636 286.819 49.6518 286.306 49.1259C285.175 47.5847 284.662 45.678 284.866 43.7789V32.5501H281.668V29.7095H284.866V24.6966L288.466 23.7943Z" fill="#7D7D7D"/>
<path d="M380 22.9088H302.697V52.7018H380V22.9088Z" fill="#E11F25"/>
<path d="M313.363 21.6221H317.063V47.171H329.336V50.2789H313.363V21.6221Z" fill="white"/>
<path d="M344.756 50.2789L344.455 47.689H344.337C343.602 48.6601 342.647 49.4435 341.55 49.9751C340.452 50.5066 339.245 50.7711 338.025 50.7468C337.215 50.8046 336.401 50.6941 335.636 50.4221C334.87 50.1502 334.169 49.7228 333.578 49.1669C332.986 48.6111 332.517 47.9388 332.198 47.1926C331.88 46.4464 331.721 45.6425 331.73 44.8316C331.73 39.8188 336.15 37.1453 344.12 37.1787V36.7609C344.202 36.1233 344.139 35.4752 343.933 34.8657C343.728 34.2562 343.387 33.7011 342.936 33.2425C342.484 32.7838 341.934 32.4335 341.327 32.2181C340.72 32.0026 340.072 31.9276 339.432 31.9987C337.54 32.009 335.688 32.5348 334.074 33.5193L333.186 31.063C335.207 29.8498 337.526 29.2194 339.884 29.2417C346.196 29.2417 347.719 33.5193 347.719 37.5964V45.2995C347.69 46.9498 347.807 48.5994 348.071 50.2288L344.756 50.2789ZM344.203 39.7687C340.118 39.6851 335.48 40.4203 335.48 44.4139C335.449 44.8866 335.518 45.3606 335.684 45.8045C335.85 46.2483 336.108 46.6519 336.442 46.9885C336.777 47.3251 337.179 47.5869 337.622 47.7566C338.065 47.9264 338.539 48.0001 339.013 47.973C340.113 48.0279 341.2 47.7208 342.107 47.0988C343.015 46.4769 343.692 45.5747 344.036 44.5309C344.173 44.1499 344.246 43.7492 344.254 43.3445L344.203 39.7687Z" fill="white"/>
<path d="M353.697 50.2789C353.78 48.8753 353.881 46.7866 353.881 44.9653V20.0514H357.581V32.9678H357.665C358.378 31.7558 359.411 30.7625 360.651 30.0966C361.891 29.4306 363.291 29.1175 364.697 29.1915C369.804 29.1915 373.42 33.4357 373.387 39.6851C373.387 47.0373 368.732 50.6966 364.144 50.6966C362.743 50.7789 361.348 50.4572 360.125 49.7698C358.902 49.0825 357.902 48.0585 357.246 46.82H357.112L356.945 50.1619L353.697 50.2789ZM357.581 42.0244C357.594 42.4854 357.65 42.9441 357.749 43.3946C358.058 44.6392 358.774 45.7455 359.784 46.5384C360.793 47.3313 362.039 47.7655 363.324 47.7725C367.242 47.7725 369.586 44.581 369.586 39.8522C369.586 35.7416 367.46 32.2159 363.441 32.2159C362.131 32.2489 360.868 32.712 359.848 33.5337C358.828 34.3553 358.108 35.4896 357.799 36.7609C357.665 37.2629 357.592 37.7789 357.581 38.2982V42.0244Z" fill="white"/>
</g>
</svg>
