<svg width="220" height="61" viewBox="0 0 220 61" fill="none" xmlns="http://www.w3.org/2000/svg">
<path d="M21.3195 46.3276C15.4997 45.7671 10.0993 43.0846 6.1702 38.8026C2.24106 34.5206 0.0645142 28.9457 0.0645142 23.1638C0.0645142 17.3819 2.24106 11.807 6.1702 7.52503C10.0993 3.24303 15.4997 0.560519 21.3195 0V7.45424C17.5361 8.03165 14.0865 9.92867 11.5945 12.8022C9.10257 15.6758 7.73273 19.3363 7.73273 23.1216C7.73273 26.907 9.10257 30.5675 11.5945 33.4411C14.0865 36.3146 17.5361 38.2116 21.3195 38.7891V46.3276Z" fill="#878787"/>
<path d="M25.7198 0C30.1655 0.41442 34.4002 2.0708 37.9296 4.77576C41.459 7.48072 44.1374 11.1226 45.652 15.2763C47.1667 19.43 47.4552 23.924 46.4837 28.2337C45.5123 32.5434 43.3211 36.4909 40.1659 39.6154C38.5724 41.1797 36.7638 42.5139 34.7934 43.5787L25.7198 61V38.7891C29.5514 38.261 33.0606 36.3808 35.6003 33.4952C38.14 30.6096 39.5388 26.9133 39.5388 23.0879C39.5388 19.2626 38.14 15.5663 35.6003 12.6807C33.0606 9.79509 29.5514 7.91487 25.7198 7.38679V0Z" fill="#E30613"/>
<path d="M55.2772 13.3569C57.3485 13.0476 59.442 12.9066 61.5366 12.9353C63.7505 12.7815 65.9516 13.3762 67.7789 14.6218C68.4653 15.1791 69.0152 15.8828 69.3873 16.6802C69.7595 17.4775 69.9443 18.3478 69.9279 19.2259C69.9749 20.1125 69.8321 20.9989 69.5088 21.8272C69.1855 22.6554 68.689 23.4069 68.0518 24.0323C66.1793 25.5345 63.8075 26.2922 61.4001 26.1573C60.8745 26.1666 60.3492 26.1271 59.831 26.0392V33.2911H55.2772V13.3569ZM59.8651 22.5314C60.3767 22.6253 60.897 22.6649 61.4172 22.6494C63.8732 22.6494 65.3911 21.4183 65.3911 19.3777C65.3911 17.337 64.0778 16.4094 61.7412 16.4094C61.1121 16.3914 60.4829 16.4423 59.8651 16.5612V22.5314Z" fill="#878787"/>
<path d="M72.4862 23.4589C72.4862 21.3003 72.4862 19.8836 72.3498 18.6356H76.3067L76.4772 21.334H76.5966C76.8563 20.4723 77.3827 19.7127 78.1016 19.1621C78.8206 18.6116 79.696 18.2977 80.6047 18.2646C80.9317 18.2603 81.258 18.2942 81.5769 18.3658V22.6494C81.1669 22.5692 80.7498 22.5296 80.3318 22.5314C79.6108 22.4667 78.8909 22.6663 78.3091 23.0924C77.7273 23.5184 77.3242 24.141 77.1765 24.8419C77.149 25.1786 77.149 25.517 77.1765 25.8537V33.2911H72.4862V23.4589Z" fill="#878787"/>
<path d="M98.4107 25.8032C98.4771 26.8406 98.3208 27.8803 97.9521 28.8538C97.5833 29.8273 97.0104 30.7126 96.2711 31.4516C95.5317 32.1907 94.6426 32.7667 93.6622 33.1419C92.6817 33.517 91.6321 33.6829 90.5822 33.6284C89.5618 33.6868 88.5404 33.5316 87.5848 33.1731C86.6291 32.8145 85.7608 32.2606 85.0364 31.5475C84.312 30.8344 83.748 29.9782 83.3811 29.0349C83.0142 28.0915 82.8527 27.0823 82.9072 26.073C82.836 25.025 82.9931 23.9742 83.3681 22.9914C83.743 22.0087 84.327 21.117 85.0805 20.3767C85.834 19.6365 86.7395 19.0648 87.7358 18.7004C88.732 18.336 89.7958 18.1874 90.8551 18.2646C91.8656 18.2182 92.8747 18.382 93.8172 18.7454C94.7597 19.1088 95.6146 19.6636 96.3267 20.3741C97.0387 21.0846 97.5922 21.9348 97.9511 22.87C98.3101 23.8052 98.4667 24.8044 98.4107 25.8032ZM87.6657 25.955C87.6657 28.4678 88.7232 30.3567 90.7016 30.3567C92.6801 30.3567 93.6522 28.5859 93.6522 25.9212C93.6522 23.7625 92.7995 21.5364 90.7016 21.5364C88.6038 21.5364 87.6657 23.7963 87.6657 25.955Z" fill="#878787"/>
<path d="M101.413 13.3907C103.467 13.0817 105.543 12.9295 107.621 12.9353C110.581 12.7482 113.52 13.5371 115.978 15.1783C117.129 16.0802 118.041 17.2454 118.635 18.5734C119.229 19.9014 119.488 21.3523 119.389 22.8012C119.469 24.3294 119.205 25.856 118.615 27.2707C118.025 28.6853 117.124 29.9526 115.978 30.9806C113.218 32.8962 109.877 33.8187 106.512 33.5947C104.762 33.61 103.013 33.5086 101.276 33.2911L101.413 13.3907ZM106.018 29.8507C106.548 29.9251 107.085 29.9533 107.621 29.935C111.833 29.935 114.596 27.692 114.596 22.8518C114.688 21.9881 114.582 21.1152 114.289 20.2967C113.995 19.4783 113.521 18.7349 112.9 18.1209C112.279 17.5068 111.527 17.0375 110.699 16.7473C109.872 16.4571 108.989 16.3532 108.115 16.4432C107.411 16.424 106.707 16.4862 106.018 16.6287V29.8507Z" fill="#878787"/>
<path d="M127.235 14.5543C127.262 15.0368 127.142 15.5164 126.89 15.9307C126.639 16.345 126.267 16.6751 125.824 16.878C125.38 17.0809 124.885 17.1474 124.403 17.0687C123.921 16.9901 123.473 16.77 123.119 16.437C122.765 16.104 122.52 15.6735 122.416 15.2012C122.312 14.729 122.355 14.2368 122.537 13.7884C122.72 13.3401 123.034 12.9564 123.44 12.687C123.846 12.4176 124.324 12.2749 124.813 12.2776C125.126 12.2591 125.439 12.3044 125.733 12.4107C126.028 12.517 126.297 12.682 126.524 12.8956C126.751 13.1091 126.931 13.3665 127.054 13.6519C127.176 13.9373 127.238 14.2444 127.235 14.5543ZM122.476 33.2911V18.6356H127.098V33.2911H122.476Z" fill="#878787"/>
<path d="M144.836 31.1662C144.962 32.3634 144.822 33.5734 144.428 34.7121C144.033 35.8507 143.392 36.8909 142.551 37.7603C140.834 39.0554 138.702 39.696 136.547 39.5648C134.705 39.6062 132.877 39.2252 131.209 38.4518L132.13 34.9776C133.451 35.7012 134.935 36.084 136.445 36.0907C136.97 36.1421 137.5 36.0765 137.996 35.8987C138.492 35.721 138.941 35.4355 139.311 35.0634C139.681 34.6913 139.961 34.242 140.132 33.7485C140.303 33.255 140.36 32.7299 140.299 32.2118V31.2842C139.837 31.894 139.233 32.3843 138.538 32.7133C137.843 33.0422 137.078 33.1999 136.308 33.1731C132.641 33.1731 130.032 30.2386 130.032 26.0393C130.032 21.3003 133.085 18.2983 136.752 18.2983C137.561 18.2512 138.367 18.4225 139.085 18.7939C139.803 19.1652 140.406 19.7226 140.828 20.4064L140.981 18.7199H144.972C144.972 19.6812 144.853 20.9124 144.853 23.0879L144.836 31.1662ZM140.214 24.6058C140.248 24.3257 140.248 24.0426 140.214 23.7625C140.093 23.1811 139.769 22.6607 139.297 22.2934C138.826 21.9261 138.238 21.7356 137.639 21.7556C135.933 21.7556 134.603 23.2566 134.603 25.9212C134.603 28.1136 135.694 29.817 137.604 29.817C138.163 29.8274 138.709 29.6518 139.154 29.3184C139.6 28.985 139.919 28.5131 140.06 27.9787C140.181 27.5854 140.232 27.1749 140.214 26.7644V24.6058Z" fill="#878787"/>
<path d="M153.296 14.5543C153.301 14.8724 153.24 15.1882 153.115 15.4813C152.99 15.7743 152.804 16.0382 152.569 16.2559C152.334 16.4736 152.056 16.6403 151.752 16.7451C151.449 16.85 151.126 16.8908 150.805 16.8648C150.489 16.8862 150.172 16.8417 149.874 16.7343C149.576 16.6269 149.304 16.4589 149.076 16.2412C148.848 16.0235 148.668 15.7609 148.549 15.4703C148.43 15.1798 148.373 14.8677 148.384 14.5543C148.435 13.9474 148.715 13.3816 149.168 12.9692C149.622 12.5569 150.215 12.328 150.831 12.328C151.447 12.328 152.041 12.5569 152.494 12.9692C152.947 13.3816 153.227 13.9474 153.279 14.5543H153.296ZM148.52 33.2911V18.6356H153.142V33.2911H148.52Z" fill="#878787"/>
<path d="M156.911 13.3907C158.972 13.0824 161.053 12.9302 163.137 12.9353C166.132 12.7187 169.113 13.5091 171.596 15.1783C172.75 16.0783 173.663 17.2431 174.258 18.5716C174.852 19.9001 175.109 21.352 175.007 22.8012C175.088 24.3294 174.823 25.856 174.233 27.2707C173.643 28.6853 172.742 29.9526 171.596 30.9807C168.836 32.8962 165.495 33.8187 162.13 33.5947C160.384 33.5798 158.64 33.4503 156.911 33.2068V13.3907ZM161.533 29.8507C162.064 29.9251 162.601 29.9533 163.137 29.935C167.349 29.935 170.112 27.692 170.112 22.8518C170.198 21.998 170.092 21.1361 169.804 20.3271C169.515 19.5181 169.05 18.7817 168.441 18.1702C167.832 17.5588 167.095 17.0871 166.282 16.7886C165.468 16.4902 164.598 16.3723 163.734 16.4432C163.035 16.4247 162.337 16.4869 161.653 16.6287L161.533 29.8507Z" fill="#878787"/>
<path d="M181.488 27.4222C181.608 29.311 183.518 30.2049 185.667 30.2049C187.058 30.2302 188.442 30.0191 189.76 29.5809L190.374 32.6671C188.662 33.3185 186.837 33.6336 185.002 33.5947C179.885 33.5947 177.088 30.7108 177.088 26.1236C177.022 25.1147 177.168 24.1033 177.515 23.1525C177.863 22.2017 178.405 21.3319 179.107 20.5975C179.81 19.8632 180.658 19.28 181.599 18.8844C182.54 18.4888 183.553 18.2893 184.576 18.2983C189.368 18.2983 191.193 21.9917 191.193 25.6176C191.197 26.2225 191.145 26.8264 191.04 27.4222H181.488ZM186.912 24.3022C186.958 23.9341 186.924 23.5608 186.815 23.2063C186.705 22.8518 186.521 22.524 186.275 22.2442C186.029 21.9644 185.726 21.7388 185.387 21.582C185.047 21.4252 184.678 21.3407 184.303 21.334C183.538 21.3847 182.82 21.7182 182.292 22.2681C181.765 22.818 181.466 23.5442 181.454 24.3022H186.912Z" fill="#878787"/>
<path d="M193.956 23.3072C193.956 21.4858 193.956 19.9342 193.837 18.6356H197.845L198.067 20.6762C198.565 19.9285 199.248 19.3182 200.05 18.9023C200.853 18.4864 201.749 18.2786 202.654 18.2983C205.673 18.2983 207.959 20.3052 207.959 24.6226V33.2911H203.337V25.1623C203.337 23.2734 202.672 21.9917 201.017 21.9917C200.493 21.9927 199.983 22.1559 199.558 22.4584C199.133 22.7609 198.814 23.1874 198.646 23.6782C198.529 24.0489 198.477 24.4368 198.493 24.825V33.2574H193.888L193.956 23.3072Z" fill="#878787"/>
<path d="M216.691 14.6724V18.6356H220.017V22.0086H216.708V27.321C216.708 29.0075 217.169 29.8844 218.533 29.8844C218.991 29.9057 219.45 29.866 219.898 29.7664V33.2237C218.928 33.5005 217.922 33.6313 216.913 33.6116C215.653 33.6432 214.43 33.1896 213.502 32.3467C212.52 31.1156 212.062 29.5552 212.223 27.9956V21.9243H210.261V18.5513H212.223V15.9035L216.691 14.6724Z" fill="#878787"/>
</svg>
