<svg width="590" height="96" viewBox="0 0 590 96" fill="none" xmlns="http://www.w3.org/2000/svg">
<path d="M16.1315 3.80981V75.0585H0V3.80981H16.1315Z" fill="#868686"/>
<path d="M29.0795 39.8481C29.0795 33.4118 28.8657 28.0167 28.6519 23.2841H42.3363L42.9778 30.383H43.3104C44.986 27.7717 47.3149 25.6394 50.0682 24.1957C52.8214 22.752 55.9044 22.0464 59.0143 22.1483C62.0166 21.996 64.9935 22.7653 67.5427 24.3522C70.092 25.9391 72.0907 28.2672 73.2689 31.0219H73.4827C75.2719 28.4617 77.5781 26.3017 80.2537 24.6803C83.27 22.9923 86.6772 22.1195 90.1369 22.1483C100.115 22.1483 107.646 29.1289 107.646 44.6517V75.0584H91.9187V46.947C91.9187 39.4222 89.543 35.1156 84.2687 35.1156C82.5829 35.1381 80.9473 35.69 79.595 36.6928C78.2427 37.6956 77.2427 39.0979 76.7375 40.7C76.3985 42.0466 76.223 43.429 76.2149 44.8173V75.0584H60.4872V46.0005C60.4872 39.5405 58.1115 35.0919 52.956 35.0919C51.2618 35.1591 49.6297 35.7451 48.2819 36.7698C46.9342 37.7946 45.9365 39.2083 45.4248 40.8183C44.9455 42.1447 44.7277 43.5507 44.7834 44.9593V75.0584H29.0795V39.8481Z" fill="#868686"/>
<path d="M119.501 40.7001C119.501 33.9325 119.288 28.2298 119.074 23.3553H133.043L133.78 30.4541H133.994C135.966 27.7489 138.586 25.5768 141.614 24.1348C144.642 22.6927 147.984 22.0262 151.337 22.1958C162.693 22.1958 172.885 32.0395 172.885 48.5325C172.885 67.4627 161.006 76.218 149.341 76.218C146.782 76.371 144.223 75.9142 141.876 74.8855C139.529 73.8567 137.462 72.2855 135.847 70.3023H135.633V96.0001H119.501V40.7001ZM135.633 52.8628C135.627 53.9991 135.739 55.133 135.966 56.2466C136.446 58.4002 137.65 60.3263 139.378 61.7071C141.105 63.088 143.254 63.8411 145.469 63.8423C152.596 63.8423 156.611 58.0449 156.611 49.266C156.611 41.0077 152.905 34.7844 145.683 34.7844C143.386 34.8492 141.18 35.6905 139.427 37.1698C137.674 38.6492 136.478 40.6786 136.037 42.9244C135.814 43.8626 135.702 44.8235 135.704 45.7876L135.633 52.8628Z" fill="#868686"/>
<path d="M182.127 0H198.258V75.0584H182.127V0Z" fill="#868686"/>
<path d="M253.661 62.5882C253.554 66.7625 253.84 70.9376 254.517 75.0585H239.953L238.979 69.8764H238.67C236.825 71.9738 234.531 73.6323 231.957 74.7298C229.384 75.8274 226.595 76.3359 223.798 76.218C221.648 76.3173 219.499 75.9806 217.484 75.2282C215.468 74.4757 213.627 73.3233 212.072 71.8407C210.516 70.3582 209.28 68.5765 208.437 66.6036C207.594 64.6308 207.162 62.508 207.168 60.3639C207.168 46.9471 219.26 40.6055 237.625 40.6055V39.9666C237.625 37.1034 236.128 33.199 228.122 33.199C223.113 33.2652 218.206 34.6094 213.867 37.1034L210.779 26.739C217.009 23.5328 223.937 21.9073 230.949 22.0065C248.245 22.0065 253.661 32.1578 253.661 44.4152V62.5882ZM238.053 50.6385C229.571 50.6385 222.99 52.6498 222.99 58.7785C222.934 59.6162 223.062 60.4561 223.365 61.2395C223.669 62.0229 224.14 62.731 224.746 63.3145C225.352 63.8979 226.079 64.3427 226.875 64.6178C227.672 64.8928 228.519 64.9916 229.357 64.9072C231.196 64.8976 232.987 64.3248 234.487 63.2665C235.988 62.2081 237.125 60.7156 237.744 58.9915C237.957 58.0922 238.061 57.1706 238.053 56.2466V50.6385Z" fill="#868686"/>
<path d="M266.705 58.4709C272.27 61.2789 278.403 62.7919 284.642 62.8958C292.078 62.8958 295.998 59.8433 295.998 55.1818C295.998 50.5202 292.6 48.2012 284.119 45.2434C272.24 41.0077 264.376 34.4531 264.376 24.1125C264.376 11.9498 274.687 2.81598 291.46 2.81598C297.736 2.63121 303.974 3.86072 309.706 6.41273L306.095 19.309C301.472 17.0587 296.391 15.9007 291.246 15.9252C284.119 15.9252 280.84 19.2143 280.84 22.8111C280.84 27.3543 284.76 29.3656 294.097 32.8441C306.736 37.5766 312.581 44.0602 312.581 54.1406C312.581 66.0903 303.458 76.2417 283.81 76.2417C276.805 76.2959 269.878 74.7753 263.545 71.7931L266.705 58.4709Z" fill="#E11F25"/>
<path d="M339.736 9.46509V23.3552H351.306V35.1866H339.736V53.9038C339.736 60.1272 341.328 62.9904 346.127 62.9904C347.722 63.0332 349.316 62.8903 350.878 62.5644V74.7271C347.501 75.7158 343.991 76.1787 340.472 76.0995C335.975 76.2627 331.591 74.6659 328.261 71.6509C325.291 68.5984 323.818 63.6292 323.818 56.3174V35.2102H316.905V23.3788H323.818V13.7481L339.736 9.46509Z" fill="#E11F25"/>
<path d="M402.884 62.5882C402.776 66.7625 403.062 70.9376 403.739 75.0585H389.2L388.225 69.8763H387.917C386.067 71.9815 383.766 73.6448 381.183 74.7427C378.6 75.8405 375.802 76.3448 372.997 76.218C370.835 76.3373 368.671 76.0153 366.638 75.2718C364.606 74.5284 362.747 73.3791 361.177 71.8945C359.606 70.4099 358.357 68.6214 357.505 66.6386C356.653 64.6558 356.217 62.5205 356.224 60.3639C356.224 46.9471 368.316 40.6054 386.681 40.6054V39.9666C386.681 37.1034 385.184 33.199 377.178 33.199C372.17 33.2652 367.262 34.6094 362.923 37.1034L359.954 26.739C366.184 23.5328 373.112 21.9073 380.124 22.0065C397.42 22.0065 402.836 32.1578 402.836 44.4152L402.884 62.5882ZM387.251 50.6385C378.77 50.6385 372.189 52.6498 372.189 58.7785C372.133 59.6162 372.261 60.4561 372.564 61.2395C372.867 62.0229 373.338 62.731 373.945 63.3145C374.551 63.8979 375.277 64.3427 376.074 64.6178C376.87 64.8928 377.717 64.9916 378.556 64.9072C380.394 64.8976 382.186 64.3248 383.686 63.2665C385.186 62.2081 386.323 60.7156 386.943 58.9915C387.156 58.0922 387.26 57.1706 387.251 56.2466V50.6385Z" fill="#E11F25"/>
<path d="M432.058 9.46509V23.3552H443.628V35.1866H432.058V53.9038C432.058 60.1272 433.65 62.9904 438.449 62.9904C440.044 63.0332 441.639 62.8903 443.201 62.5644V74.7271C439.824 75.7158 436.314 76.1787 432.795 76.0995C428.297 76.2627 423.914 74.6659 420.583 71.6509C417.614 68.5984 416.141 63.6292 416.141 56.3174V35.2102H409.346V23.3788H416.26V13.7481L432.058 9.46509Z" fill="#E11F25"/>
<path d="M468.788 8.99216C468.795 10.1026 468.57 11.2024 468.127 12.2214C467.684 13.2405 467.033 14.1565 466.215 14.9111C465.397 15.6657 464.43 16.2424 463.376 16.6044C462.322 16.9664 461.204 17.1059 460.093 17.0139C459.003 17.0758 457.913 16.9133 456.889 16.5365C455.865 16.1597 454.931 15.5766 454.144 14.8238C453.357 14.0709 452.734 13.1645 452.315 12.1611C451.895 11.1577 451.688 10.0789 451.706 8.99216C451.822 6.81361 452.772 4.76219 454.361 3.26076C455.95 1.75934 458.057 0.922363 460.247 0.922363C462.437 0.922363 464.544 1.75934 466.133 3.26076C467.722 4.76219 468.673 6.81361 468.788 8.99216ZM452.158 75.0587V23.3555H468.289V75.0587H452.158Z" fill="#E11F25"/>
<path d="M531.627 48.6271C531.627 67.5573 518.157 76.2179 504.234 76.2179C489.053 76.2179 477.388 66.2795 477.388 49.5736C477.388 32.8677 488.436 22.1011 505.185 22.1011C521.007 22.1011 531.627 32.986 531.627 48.6271ZM494.161 49.1477C494.161 58.0449 497.891 64.6941 504.781 64.6941C511.148 64.6941 515.068 58.4708 515.068 49.053C515.068 41.4336 512.098 33.6249 504.781 33.6249C497.464 33.6249 494.161 41.5519 494.161 49.1477Z" fill="#E11F25"/>
<path d="M540.75 39.8481C540.75 33.4118 540.536 28.0167 540.322 23.2841H554.34L555.076 30.3829H555.385C557.13 27.7525 559.516 25.6062 562.321 24.1453C565.126 22.6843 568.257 21.9565 571.421 22.03C582.041 22.03 590 29.1288 590 44.344V75.0583H573.868V46.4027C573.868 39.7534 571.493 35.2101 565.696 35.2101C563.859 35.2323 562.074 35.8226 560.588 36.8994C559.103 37.9762 557.99 39.4862 557.404 41.2205C556.995 42.5205 556.818 43.8821 556.882 45.2432V75.0583H540.75V39.8481Z" fill="#E11F25"/>
</svg>
