<svg width="150" height="910" viewBox="0 0 150 910" fill="none" xmlns="http://www.w3.org/2000/svg">
<path d="M5.95294 885.119L117.279 885.119L117.279 910L5.95294 910L5.95294 885.119Z" fill="#E5E5E4" fill-opacity="0.5"/>
<path d="M62.2629 865.149C52.2062 865.149 43.7763 865.478 36.3817 865.808L36.3817 844.702L47.4736 843.712L47.4736 843.199C43.3935 840.615 40.0618 837.023 37.806 832.776C35.5501 828.53 34.4477 823.775 34.607 818.978C34.369 814.347 35.571 809.756 38.0505 805.824C40.5301 801.892 44.1677 798.809 48.4719 796.992L48.4719 796.662C44.4716 793.903 41.0966 790.346 38.5631 786.219C35.9257 781.567 34.5619 776.311 34.607 770.975C34.607 755.585 45.5141 743.969 69.7684 743.969L117.279 743.969L117.279 768.227L73.3548 768.227C61.5974 768.227 54.8683 771.891 54.8683 780.026C54.9034 782.626 55.7659 785.149 57.3327 787.235C58.8995 789.321 61.0907 790.863 63.5939 791.642C65.6981 792.165 67.858 792.436 70.0273 792.448L117.279 792.448L117.279 816.706L71.8759 816.706C61.7822 816.706 54.8313 820.37 54.8313 828.322C54.9364 830.935 55.8519 833.453 57.4531 835.531C59.0542 837.61 61.2631 839.149 63.7788 839.938C65.8513 840.677 68.0482 841.013 70.2491 840.927L117.279 840.927L117.279 865.149L62.2629 865.149Z" fill="#E5E5E4" fill-opacity="0.5"/>
<path d="M63.594 725.684C53.0196 725.684 44.1091 726.014 36.4926 726.344L36.4926 704.797L47.5846 703.662L47.5846 703.332C43.3577 700.289 39.9639 696.249 37.7106 691.578C35.4574 686.907 34.416 681.753 34.681 676.582C34.681 659.067 50.0618 643.347 75.8321 643.347C105.411 643.347 119.091 661.668 119.091 679.66C119.33 683.608 118.616 687.555 117.009 691.175C115.401 694.794 112.946 697.982 109.847 700.474L109.847 700.803L150 700.803L150 725.684L63.594 725.684ZM82.5982 700.803C84.3736 700.813 86.1454 700.641 87.8853 700.29C91.2504 699.549 94.2599 697.693 96.4175 695.028C98.5751 692.363 99.7518 689.05 99.7537 685.633C99.7537 674.64 90.6953 668.447 76.9782 668.447C64.0746 668.447 54.3507 674.164 54.3507 685.303C54.452 688.846 55.7664 692.248 58.0779 694.952C60.3894 697.656 63.5603 699.5 67.0694 700.18C68.5353 700.524 70.0368 700.696 71.5432 700.693L82.5982 700.803Z" fill="#E5E5E4" fill-opacity="0.5"/>
<path d="M0 629.092L-1.08758e-06 604.211L117.279 604.211L117.279 629.092L0 629.092Z" fill="#E5E5E4" fill-opacity="0.5"/>
<path d="M97.7937 518.759C104.316 518.926 110.84 518.484 117.279 517.44L117.279 539.903L109.181 541.405L109.181 541.881C112.459 544.727 115.05 548.265 116.765 552.235C118.48 556.205 119.274 560.506 119.09 564.82C119.245 568.137 118.719 571.45 117.544 574.559C116.368 577.668 114.567 580.508 112.251 582.907C109.934 585.305 107.15 587.213 104.068 588.513C100.985 589.813 97.6683 590.479 94.3182 590.47C73.3544 590.47 63.4456 571.819 63.4456 543.494L62.4474 543.494C57.9736 543.494 51.873 545.802 51.873 558.151C51.9765 565.876 54.0769 573.446 57.9736 580.137L41.7794 584.901C36.7697 575.291 34.2297 564.605 34.3847 553.79C34.3847 527.114 50.2462 518.759 69.3983 518.759L97.7937 518.759ZM79.1222 542.834C79.1222 555.916 82.265 566.066 91.841 566.066C93.15 566.152 94.4622 565.955 95.6863 565.487C96.9104 565.02 98.0168 564.293 98.9285 563.358C99.8401 562.423 100.535 561.302 100.965 560.074C101.395 558.846 101.549 557.539 101.417 556.246C101.402 553.41 100.507 550.648 98.8535 548.333C97.1998 546.019 94.8677 544.266 92.1738 543.31C90.7687 542.981 89.3286 542.821 87.8849 542.834L79.1222 542.834Z" fill="#E5E5E4" fill-opacity="0.5"/>
<path d="M91.3607 498.642C95.7483 490.058 98.1124 480.598 98.2747 470.976C98.2747 459.507 93.5052 453.461 86.2215 453.461C78.9378 453.461 75.3144 458.701 70.6928 471.783C64.0746 490.104 53.833 502.233 37.6757 502.233C18.6715 502.233 4.39991 486.33 4.39991 460.46C4.11121 450.779 6.03231 441.159 10.0198 432.318L30.1702 437.888C26.6541 445.017 24.8449 452.854 24.883 460.79C24.883 471.783 30.0223 476.839 35.6422 476.839C42.7411 476.839 45.8838 470.793 51.3188 456.392C58.7135 436.898 68.8441 427.884 84.5947 427.884C103.266 427.884 119.128 441.955 119.128 472.259C119.212 483.063 116.836 493.748 112.177 503.516L91.3607 498.642Z" fill="#E5E5E4" fill-opacity="0.5"/>
<path d="M14.7892 386.001L36.4925 386.001L36.4925 368.155L54.9791 368.155L54.9791 386.001L84.2248 386.001C93.9488 386.001 98.4225 383.545 98.4225 376.144C98.4895 373.683 98.2661 371.224 97.757 368.815L116.761 368.815C118.306 374.023 119.029 379.437 118.906 384.865C119.16 391.802 116.666 398.562 111.955 403.699C107.185 408.28 99.4208 410.552 87.9961 410.552L55.016 410.552L55.016 421.215L36.5295 421.215L36.5295 410.552L21.4814 410.552L14.7892 386.001Z" fill="#E5E5E4" fill-opacity="0.5"/>
<path d="M97.7937 288.603C104.316 288.769 110.84 288.328 117.279 287.284L117.279 309.709L109.181 311.212L109.181 311.688C112.471 314.54 115.07 318.09 116.785 322.073C118.5 326.057 119.288 330.373 119.09 334.7C119.277 338.035 118.774 341.372 117.612 344.507C116.45 347.642 114.654 350.508 112.335 352.931C110.015 355.353 107.221 357.281 104.122 358.594C101.024 359.908 97.688 360.58 94.3182 360.57C73.3544 360.57 63.4456 341.919 63.4456 313.593L62.4474 313.593C57.9736 313.593 51.873 315.902 51.873 328.251C51.9765 335.976 54.0769 343.546 57.9736 350.237L41.7794 354.817C36.7697 345.208 34.2297 334.522 34.3847 323.707C34.3847 297.031 50.2462 288.676 69.3983 288.676L97.7937 288.603ZM79.1222 312.714C79.1222 325.796 82.265 335.946 91.841 335.946C93.15 336.032 94.4622 335.835 95.6863 335.367C96.9104 334.9 98.0168 334.173 98.9285 333.238C99.8401 332.303 100.535 331.182 100.965 329.954C101.395 328.725 101.549 327.419 101.417 326.125C101.402 323.29 100.507 320.527 98.8535 318.213C97.1998 315.899 94.8677 314.146 92.1738 313.19C90.7687 312.861 89.3287 312.701 87.8849 312.714L79.1222 312.714Z" fill="#E5E5E4" fill-opacity="0.5"/>
<path d="M14.7892 243.605L36.4925 243.605L36.4925 225.76L54.9791 225.76L54.9791 243.605L84.2248 243.605C93.9488 243.605 98.4225 241.15 98.4225 233.748C98.4895 231.287 98.2661 228.828 97.757 226.419L116.761 226.419C118.306 231.628 119.029 237.041 118.906 242.469C119.16 249.406 116.666 256.166 111.955 261.303C107.185 265.884 99.4208 268.156 87.9961 268.156L55.016 268.156L55.016 278.636L36.5295 278.636L36.5295 267.973L21.4814 267.973L14.7892 243.605Z" fill="#E5E5E4" fill-opacity="0.5"/>
<path d="M14.0497 186.954C15.7848 186.943 17.5032 187.29 19.0954 187.974C20.6877 188.657 22.1189 189.662 23.298 190.923C24.4771 192.185 25.3781 193.676 25.9438 195.302C26.5095 196.927 26.7273 198.652 26.5836 200.366C26.6804 202.046 26.4265 203.728 25.8377 205.307C25.2489 206.886 24.3379 208.327 23.1616 209.541C21.9852 210.755 20.5689 211.715 19.0011 212.362C17.4333 213.009 15.7477 213.329 14.0497 213.301C10.6457 213.123 7.44034 211.657 5.09436 209.206C2.74839 206.755 1.44061 203.506 1.44061 200.127C1.44061 196.749 2.74839 193.5 5.09436 191.049C7.44034 188.598 10.6457 187.132 14.0497 186.954ZM117.279 212.604L36.4924 212.604L36.4924 187.724L117.279 187.724L117.279 212.604Z" fill="#E5E5E4" fill-opacity="0.5"/>
<path d="M75.98 90.0326C105.559 90.0326 119.091 110.809 119.091 132.282C119.091 155.697 103.562 173.689 77.459 173.689C51.3559 173.689 34.5331 156.65 34.5331 130.817C34.5331 106.412 51.5408 90.0326 75.98 90.0326ZM76.7934 147.819C90.6953 147.819 101.085 142.066 101.085 131.44C101.085 121.619 91.3609 115.573 76.6456 115.573C64.7402 115.573 52.5391 120.153 52.5391 131.44C52.5391 142.726 64.9251 147.819 76.7934 147.819Z" fill="#E5E5E4" fill-opacity="0.5"/>
<path d="M62.2627 75.9615C52.206 75.9615 43.7762 76.2913 36.3815 76.6211L36.3815 55.0015L47.4735 53.8656L47.4735 53.3892C43.3634 50.6983 40.0099 47.0174 37.7272 42.6913C35.4444 38.3652 34.3072 33.5356 34.422 28.655C34.422 12.2754 45.5139 -6.15203e-05 69.2876 -6.25595e-05L117.279 -6.46573e-05L117.279 24.8807L72.5043 24.8807C62.1149 24.8807 55.016 28.5451 55.016 37.486C55.0506 40.3195 55.973 43.0722 57.6555 45.3634C59.338 47.6545 61.6973 49.3707 64.4072 50.2746C66.4384 50.9065 68.566 51.1793 70.6926 51.0807L117.279 51.0807L117.279 75.9615L62.2627 75.9615Z" fill="#E5E5E4" fill-opacity="0.5"/>

</svg>
