<svg width="320" height="385" viewBox="0 0 320 385" fill="none" xmlns="http://www.w3.org/2000/svg">
<path d="M315.626 161.983C315.668 132.671 307.55 103.927 292.181 78.9675C276.812 54.0085 254.798 33.8203 228.606 20.6635C202.414 7.50675 173.076 1.90081 143.878 4.47339C114.68 7.04597 86.7743 17.6955 63.2859 35.2296C39.7974 52.7637 21.6534 76.49 10.8854 103.752C0.117356 131.014 -2.84952 160.735 2.31696 189.588C7.48343 218.44 20.5793 245.285 40.1381 267.117C59.697 288.948 84.9467 304.904 113.06 313.198L152.999 381.972C153.498 382.825 154.213 383.534 155.071 384.026C155.929 384.518 156.901 384.777 157.891 384.777C158.88 384.777 159.852 384.518 160.71 384.026C161.568 383.534 162.283 382.825 162.783 381.972L202.721 313.198C235.313 303.51 263.907 283.559 284.25 256.314C304.593 229.069 315.597 195.985 315.626 161.983Z" fill="white"/>
<path d="M320 157.893C320.019 128.585 311.881 99.8506 296.497 74.9057C281.113 49.9608 259.09 29.79 232.893 16.6513C206.695 3.51257 177.359 -2.07546 148.166 0.512722C118.974 3.1009 91.0774 13.7631 67.6004 31.3059C44.1235 48.8486 25.9923 72.5794 15.2366 99.8419C4.48086 127.104 1.52508 156.823 6.70012 185.67C11.8752 214.517 24.9768 241.354 44.5383 263.177C64.0999 285.001 89.3493 300.949 117.46 309.237L157.295 377.908C157.79 378.768 158.502 379.483 159.361 379.98C160.22 380.477 161.195 380.738 162.187 380.738C163.179 380.738 164.154 380.477 165.013 379.98C165.872 379.483 166.585 378.768 167.079 377.908L207.07 309.237C239.688 299.548 268.303 279.58 288.653 252.308C309.002 225.036 319.997 191.92 320 157.893Z" fill="url(#paint0_linear)"/>
<path d="M320 157.893C320.019 128.585 311.881 99.8506 296.497 74.9057C281.113 49.9608 259.09 29.79 232.893 16.6513C206.695 3.51257 177.359 -2.07546 148.166 0.512722C118.974 3.1009 91.0774 13.7631 67.6004 31.3059C44.1235 48.8486 25.9923 72.5794 15.2366 99.8419C4.48086 127.104 1.52508 156.823 6.70012 185.67C11.8752 214.517 24.9768 241.354 44.5383 263.177C64.0999 285.001 89.3493 300.949 117.46 309.237L157.295 377.908C157.79 378.768 158.502 379.483 159.361 379.98C160.22 380.477 161.195 380.738 162.187 380.738C163.179 380.738 164.154 380.477 165.013 379.98C165.872 379.483 166.585 378.768 167.079 377.908L207.07 309.237C239.688 299.548 268.303 279.58 288.653 252.308C309.002 225.036 319.997 191.92 320 157.893Z" fill="#E5E5E4"/>
<path d="M211.965 278.241C279.223 251.353 311.95 175.031 285.062 107.772C258.175 40.5123 181.854 7.78507 114.596 34.6733C47.3375 61.5615 14.6108 137.883 41.4986 205.142C68.3863 272.402 144.707 305.129 211.965 278.241Z" fill="#FDFDFD"/>
<path opacity="0.1" d="M249.055 242.256C296.433 194.878 296.433 118.063 249.055 70.6849C201.678 23.307 124.865 23.307 77.4875 70.6849C30.1103 118.063 30.1103 194.878 77.4875 242.256C124.865 289.633 201.678 289.633 249.055 242.256Z" fill="url(#paint1_linear)"/>
<path d="M249.055 242.256C296.433 194.878 296.433 118.063 249.055 70.6849C201.678 23.307 124.865 23.307 77.4875 70.6849C30.1103 118.063 30.1103 194.878 77.4875 242.256C124.865 289.633 201.678 289.633 249.055 242.256Z" stroke="#E20D18" stroke-width="0.5" stroke-miterlimit="10"/>
<defs>
<linearGradient id="paint0_linear" x1="4.37435" y1="190.429" x2="320" y2="190.429" gradientUnits="userSpaceOnUse">
<stop stop-color="#65B6E5"/>
<stop offset="1" stop-color="#71C6CD"/>
</linearGradient>
<linearGradient id="paint1_linear" x1="37.0082" y1="285.708" x2="247.187" y2="70.5887" gradientUnits="userSpaceOnUse">
<stop offset="0.33" stop-color="#010101" stop-opacity="0"/>
<stop offset="1" stop-color="#010101"/>
</linearGradient>
</defs>
</svg>
