<?xml version="1.0" encoding="UTF-8"?>
<svg width="25px" height="25px" viewBox="0 0 25 25" version="1.1" xmlns="http://www.w3.org/2000/svg" xmlns:xlink="http://www.w3.org/1999/xlink">
    <!-- Generator: Sketch 52.4 (67378) - http://www.bohemiancoding.com/sketch -->
    <title>twitter</title>
    <desc>Created with Sketch.</desc>
    <g id="Page-1" stroke="none" stroke-width="1" fill="none" fill-rule="evenodd">
        <g id="MAIN" transform="translate(-1209.000000, -5847.000000)" fill="#FFFFFF" fill-rule="nonzero">
            <g id="Group-9" transform="translate(1163.000000, 5847.000000)">
                <path d="M58.5,0 C51.5968745,0 46,5.59687454 46,12.5 C46,19.4031255 51.5968745,25 58.5,25 C65.4031255,25 71,19.4031255 71,12.5 C71,5.59533257 65.4031255,0 58.5,0 Z M64.7187495,9.6937244 L64.7281041,10.0921685 C64.7281041,14.1609031 61.6328126,18.8484288 55.9718437,18.8484288 C54.2343562,18.8484288 52.6171421,18.339066 51.2546608,17.4655936 C51.4953104,17.4937088 51.7405858,17.509334 51.9890479,17.509334 C53.4312489,17.509334 54.7578023,17.0171384 55.8109138,16.1921352 C54.4640578,16.1671553 53.3280913,15.2765156 52.9359179,14.0546617 C53.124963,14.0905895 53.3156014,14.1078081 53.5155944,14.1078081 C53.796849,14.1078081 54.0686977,14.0718803 54.3265144,14.0015666 C52.9186993,13.7171767 51.8577752,12.4750201 51.8577752,10.9844015 L51.8577752,10.9453383 C52.2733865,11.1765819 52.7468215,11.3140738 53.251507,11.3312925 C52.4265037,10.7797312 51.8827551,9.83753845 51.8827551,8.77034367 C51.8827551,8.20629246 52.0343303,7.67816905 52.2983663,7.22349463 C53.8155582,9.08598414 56.0843044,10.3109735 58.6421179,10.4391108 C58.5889714,10.2140866 58.5624496,9.97816576 58.5624496,9.73756764 C58.5624496,8.03914332 59.9405562,6.66098538 61.6405739,6.66098538 C62.5249428,6.66098538 63.3249663,7.03439818 63.8874241,7.63283524 C64.5874254,7.4937499 65.2468215,7.23752652 65.8421232,6.88595824 C65.6124217,7.60472006 65.1249548,8.20783442 64.4889965,8.58905985 C65.1093295,8.51561087 65.7046312,8.34841034 66.2561925,8.10467689 C65.8437166,8.72028117 65.3202705,9.26248787 64.7187495,9.6937244 Z" id="twitter"></path>
            </g>
        </g>
    </g>
</svg>