<svg width="80" height="80" viewBox="0 0 80 80" fill="none" xmlns="http://www.w3.org/2000/svg">
<path d="M77.36 40C77.36 60.64 60.64 77.36 40 77.36C19.36 77.36 2.64001 60.64 2.64001 40C2.64001 19.36 19.36 2.64001 40 2.64001C60.64 2.72001 77.28 19.36 77.36 40Z" fill="white"/>
<path d="M40 0C17.92 0 0 17.92 0 40C0 62.08 17.92 80 40 80C62.08 80 80 62.08 80 40C80 17.92 62.08 0 40 0ZM40 77.36C19.36 77.36 2.64 60.64 2.64 40C2.64 19.36 19.36 2.64 40 2.64C60.64 2.64 77.28 19.36 77.36 40C77.36 60.64 60.64 77.36 40 77.36Z" fill="#E30613"/>
<path d="M54.6425 34.4349L40.7055 22.712C40.7055 22.712 40.6359 22.6418 40.5662 22.6418C40.4965 22.6418 40.4965 22.5716 40.4268 22.5716C40.4268 22.5716 40.3571 22.5716 40.3571 22.5014C40.2874 22.5014 40.2178 22.5014 40.1481 22.4312C40.0784 22.361 40.0087 22.4312 39.939 22.4312C39.939 22.4312 39.939 22.4312 39.8693 22.4312C39.8693 22.4312 39.8693 22.4312 39.7996 22.4312C39.73 22.4312 39.6603 22.4312 39.6603 22.4312C39.5906 22.4312 39.5209 22.4312 39.5209 22.5014C39.5209 22.5014 39.4512 22.5014 39.4512 22.5716C39.3815 22.5716 39.3815 22.6418 39.3118 22.6418C39.3118 22.6418 39.2422 22.6418 39.1725 22.712L25.2355 34.4349C24.8871 34.7157 24.7477 35.1369 24.8174 35.5581C24.8871 35.9793 25.1658 36.3303 25.5839 36.4707C26.0021 36.6111 26.4202 36.5409 26.7686 36.2601L38.8241 26.1517V56.4067C38.8241 57.0385 39.3815 57.6 40.0087 57.6C40.6359 57.6 41.1933 57.0385 41.1933 56.4067V26.0815L53.2488 36.1899C53.5972 36.4707 54.0153 36.5409 54.4335 36.4005C54.8516 36.2601 55.1303 35.9091 55.2 35.4879C55.1303 35.0667 54.9212 34.6455 54.6425 34.4349Z" fill="#E30613"/>
</svg>
