<?xml version="1.0" standalone="no"?>
<!DOCTYPE svg PUBLIC "-//W3C//DTD SVG 20010904//EN"
 "http://www.w3.org/TR/2001/REC-SVG-20010904/DTD/svg10.dtd">
<svg version="1.0" xmlns="http://www.w3.org/2000/svg"
 width="800.000000pt" height="800.000000pt" viewBox="0 0 800.000000 800.000000"
 preserveAspectRatio="xMidYMid meet">
<metadata>
Created by potrace 1.14, written by Peter Selinger 2001-2017
</metadata>
<g transform="translate(0.000000,800.000000) scale(0.100000,-0.100000)"
fill="#000000" stroke="none">
<path d="M3758 7995 c-1 -1 -46 -6 -98 -9 -52 -4 -104 -9 -115 -11 -11 -3 -47
-7 -79 -10 -32 -3 -62 -7 -65 -10 -4 -2 -30 -6 -58 -9 -63 -8 -298 -59 -395
-86 -40 -12 -80 -23 -88 -25 -26 -6 -222 -72 -290 -98 -319 -122 -721 -344
-955 -526 -22 -17 -53 -41 -70 -54 -150 -112 -452 -399 -580 -551 -400 -472
-682 -1009 -835 -1591 -23 -87 -64 -283 -75 -355 -4 -25 -9 -54 -11 -65 -44
-234 -53 -730 -19 -1055 19 -177 93 -534 141 -681 8 -25 16 -54 18 -65 4 -19
28 -87 68 -194 46 -122 126 -302 184 -415 88 -171 98 -190 107 -193 4 -2 7 -8
7 -13 0 -29 298 -458 360 -519 3 -3 30 -34 59 -70 66 -78 343 -356 425 -425
463 -393 992 -673 1556 -825 213 -57 382 -89 605 -115 28 -3 66 -8 85 -11 61
-9 582 -12 655 -4 39 4 102 11 140 14 88 8 146 15 165 21 8 2 36 7 62 10 26 3
109 19 185 36 319 69 621 174 913 317 191 93 333 179 614 372 23 16 157 121
166 130 3 3 37 32 75 64 102 86 358 346 450 456 301 363 538 771 687 1185 22
61 44 122 50 137 5 15 10 31 10 35 0 4 6 24 14 43 27 70 99 379 119 510 4 25
9 54 11 65 26 139 39 328 39 595 0 419 -46 752 -152 1110 -14 46 -27 91 -28
100 -26 118 -217 557 -323 743 -12 20 -32 54 -43 75 -72 127 -223 344 -343
492 -96 119 -121 146 -286 310 -142 141 -190 186 -261 245 -44 37 -243 190
-260 200 -9 6 -56 36 -104 68 -336 225 -740 407 -1147 518 -98 26 -318 74
-393 86 -16 2 -55 8 -85 13 -30 5 -86 12 -125 16 -38 4 -81 8 -95 11 -31 5
-587 13 -592 8z"/>
</g>
</svg>
